<?xml version="1.0" standalone="no"?>
<!DOCTYPE svg PUBLIC "-//W3C//DTD SVG 20010904//EN"
 "http://www.w3.org/TR/2001/REC-SVG-20010904/DTD/svg10.dtd">
<svg version="1.0" xmlns="http://www.w3.org/2000/svg"
 width="1800.000000pt" height="879.000000pt" viewBox="0 0 1800.000000 879.000000"
 preserveAspectRatio="xMidYMid meet">
<g transform="translate(0.000000,879.000000) scale(0.100000,-0.100000)"
fill="#000000" stroke="none">
<path d="M11700 8411 c-14 -4 -109 -11 -212 -14 -103 -4 -207 -11 -230 -17
-47 -10 -133 -24 -273 -44 -90 -13 -287 -60 -315 -75 -9 -5 -36 -12 -60 -16
-25 -4 -49 -11 -55 -15 -5 -4 -21 -10 -35 -13 -25 -5 -96 -30 -135 -46 -78
-32 -184 -71 -194 -71 -7 0 -25 -7 -39 -15 -15 -8 -49 -24 -75 -35 -27 -12
-78 -39 -113 -61 -35 -21 -66 -39 -69 -39 -26 0 -283 -143 -305 -170 -3 -4
-45 -30 -95 -60 -96 -57 -186 -122 -248 -180 -21 -19 -46 -39 -54 -44 -8 -4
-23 -16 -33 -25 -9 -9 -31 -27 -49 -41 -128 -99 -378 -345 -425 -418 -13 -20
-40 -53 -60 -71 -20 -19 -36 -40 -36 -45 0 -6 -22 -35 -50 -64 -49 -53 -160
-211 -160 -229 0 -5 -11 -20 -25 -33 -14 -13 -25 -29 -25 -36 0 -7 -13 -29
-30 -47 -16 -19 -30 -38 -30 -43 0 -4 -7 -15 -16 -25 -27 -30 -264 -509 -264
-534 0 -13 -4 -26 -9 -29 -4 -3 -16 -27 -25 -53 -9 -26 -23 -61 -30 -78 -7
-16 -20 -47 -29 -68 -14 -32 -57 -191 -113 -422 -8 -33 -19 -91 -24 -130 -15
-119 -36 -220 -45 -220 -5 0 -16 47 -26 105 -16 96 -33 165 -61 245 -6 17 -13
44 -15 60 -3 17 -9 35 -13 40 -4 6 -10 23 -14 38 -4 16 -17 51 -30 77 -13 27
-27 61 -30 77 -10 37 -129 274 -174 345 -37 58 -87 144 -99 170 -6 15 -29 46
-50 70 -22 24 -66 79 -98 123 -85 114 -368 409 -420 437 -11 6 -36 24 -55 40
-32 27 -65 53 -183 146 -23 17 -49 35 -57 38 -47 19 -89 42 -118 67 -18 15
-38 27 -45 27 -7 0 -18 9 -25 20 -7 11 -18 20 -25 20 -7 0 -24 8 -37 17 -27
19 -128 63 -145 63 -6 0 -46 18 -90 41 -79 40 -144 64 -363 133 l-113 36 -44
0 c-24 0 -46 4 -49 9 -3 5 -36 12 -73 16 -38 4 -75 11 -84 16 -17 9 -171 25
-368 38 -63 4 -160 4 -215 0 -56 -5 -158 -13 -228 -18 -70 -5 -144 -14 -165
-20 -21 -5 -78 -17 -128 -26 -164 -30 -291 -64 -382 -102 -17 -7 -38 -13 -46
-13 -9 0 -19 -4 -22 -10 -3 -5 -13 -10 -21 -10 -15 0 -49 -14 -189 -80 -44
-21 -102 -47 -128 -59 -26 -11 -86 -45 -132 -76 -46 -30 -87 -55 -91 -55 -10
0 -143 -89 -186 -124 -21 -17 -55 -45 -75 -62 -21 -17 -58 -44 -84 -61 -51
-35 -358 -347 -395 -402 -32 -47 -85 -116 -131 -170 -33 -38 -89 -125 -110
-171 -3 -8 -16 -28 -29 -45 -30 -41 -184 -341 -184 -358 0 -8 -7 -20 -15 -27
-8 -7 -15 -25 -15 -41 0 -15 -4 -30 -9 -33 -9 -6 -41 -96 -41 -116 0 -7 -6
-26 -14 -43 -29 -68 -68 -201 -81 -279 -8 -46 -19 -108 -24 -138 -24 -131 -31
-193 -37 -330 -3 -80 -8 -148 -10 -151 -2 -4 -36 -4 -75 -1 l-72 5 -14 -18
c-17 -25 -17 -50 3 -69 l15 -16 75 0 74 0 1 -52 c1 -136 10 -268 19 -313 5
-27 21 -113 34 -190 29 -164 48 -241 87 -340 4 -11 17 -49 29 -85 11 -36 30
-85 42 -110 11 -25 31 -73 44 -108 38 -98 245 -471 274 -492 4 -3 11 -12 16
-21 10 -19 71 -95 97 -121 9 -10 17 -22 17 -27 0 -9 26 -43 128 -161 54 -64
224 -230 234 -230 4 0 37 -27 74 -60 36 -33 71 -60 78 -60 7 0 25 -14 42 -31
16 -17 45 -40 64 -52 19 -12 42 -29 50 -38 8 -9 35 -27 60 -40 25 -13 54 -31
65 -41 11 -9 46 -28 77 -42 31 -14 59 -30 63 -36 6 -9 148 -80 161 -80 3 0 51
-22 106 -50 55 -27 111 -50 124 -50 12 0 26 -4 29 -10 3 -5 15 -10 27 -10 11
0 34 -7 51 -15 18 -8 50 -19 72 -24 22 -6 66 -19 97 -30 55 -20 97 -29 328
-71 218 -39 702 -44 905 -10 59 11 76 14 240 46 79 15 253 67 287 85 10 5 28
9 41 9 13 0 32 7 43 15 10 8 28 15 38 15 10 0 52 16 92 35 40 19 75 35 79 35
14 0 185 85 252 126 40 24 75 44 79 44 3 0 23 13 44 30 21 16 42 30 48 30 5 0
36 19 68 43 33 23 69 49 80 57 176 123 500 434 568 543 21 34 47 68 117 150
19 23 59 83 87 133 29 51 59 97 67 104 8 7 15 21 15 31 0 10 5 21 11 24 13 9
149 288 149 308 0 8 11 37 24 64 13 26 33 82 46 123 12 41 30 97 41 124 11 27
29 104 40 170 29 168 29 169 36 162 4 -4 10 -30 14 -59 22 -157 48 -297 69
-372 5 -16 18 -70 30 -120 27 -111 48 -184 61 -207 5 -10 9 -25 9 -33 0 -9 14
-42 30 -75 17 -33 30 -65 30 -72 0 -7 6 -25 14 -39 7 -15 22 -51 31 -80 21
-63 201 -418 254 -500 68 -108 135 -204 143 -207 4 -2 8 -10 8 -18 0 -20 40
-80 89 -134 22 -25 73 -87 113 -137 93 -118 402 -433 493 -503 38 -30 80 -67
93 -82 13 -15 29 -28 36 -28 6 0 33 -20 60 -45 27 -25 54 -45 61 -45 6 0 26
-13 45 -30 19 -16 40 -29 46 -30 6 0 19 -9 30 -21 10 -11 32 -27 49 -35 16 -8
48 -28 70 -45 22 -16 66 -43 98 -59 32 -15 66 -35 75 -43 25 -22 333 -177 351
-177 9 0 41 -13 71 -30 30 -16 62 -29 70 -30 8 0 28 -7 44 -15 53 -28 328
-115 363 -115 11 0 23 -3 27 -7 13 -13 224 -64 361 -87 270 -46 264 -46 640
-61 122 -5 541 21 645 40 47 8 126 22 175 30 128 20 188 34 199 45 6 6 23 10
39 10 16 0 43 6 60 13 18 8 75 24 127 37 52 13 107 29 122 36 15 8 35 14 45
14 10 0 41 12 68 25 28 14 55 25 60 25 6 0 37 14 70 30 33 16 65 30 72 30 7 0
29 9 50 19 21 11 108 53 193 95 85 41 193 100 239 131 46 30 87 55 91 55 3 0
43 27 88 60 45 33 86 60 91 60 12 0 116 83 252 201 30 27 60 49 65 49 12 0
383 370 398 397 15 26 121 157 171 211 22 24 47 56 55 70 37 66 82 132 91 132
5 0 9 7 9 15 0 8 14 30 30 48 17 19 30 39 30 43 0 5 11 25 24 44 13 19 56 98
95 175 40 77 79 147 87 156 8 8 14 23 14 31 0 9 7 21 15 28 8 7 15 21 15 32 0
10 11 39 25 64 14 25 25 52 25 62 0 9 14 44 30 76 17 32 30 66 30 75 0 9 7 26
15 38 21 30 51 124 91 288 8 33 19 76 24 95 39 150 60 254 79 390 5 36 12 73
16 82 4 9 12 120 18 245 l12 228 79 5 79 5 7 20 c4 11 4 31 0 45 l-7 25 -71 1
c-40 0 -76 5 -81 10 -5 5 -14 104 -19 219 -10 197 -20 281 -56 465 -8 41 -20
104 -26 140 -6 36 -15 73 -21 82 -5 10 -9 27 -9 39 0 11 -4 28 -10 38 -5 10
-16 49 -25 87 -9 38 -19 85 -24 104 -11 47 -78 217 -102 258 -10 18 -19 40
-19 48 0 9 -11 40 -25 70 -14 30 -25 57 -25 61 0 9 -88 182 -108 212 -10 14
-33 58 -51 96 -37 74 -100 187 -111 195 -12 9 -81 112 -109 160 -30 55 -38 66
-188 248 -160 196 -287 334 -372 405 -40 34 -97 82 -125 108 -28 25 -64 54
-81 64 -16 10 -48 35 -70 56 -51 47 -142 117 -196 149 -23 14 -54 35 -68 46
-14 12 -37 25 -51 29 -13 4 -37 21 -51 36 -15 16 -34 29 -43 29 -9 0 -16 3
-16 8 0 4 -21 18 -47 31 -27 13 -55 28 -63 32 -8 4 -62 32 -120 61 -58 29
-121 62 -140 73 -19 12 -70 34 -113 49 -42 15 -80 32 -83 37 -3 5 -15 9 -28 9
-13 0 -44 11 -70 25 -26 14 -55 25 -64 25 -9 0 -28 6 -42 13 -14 7 -54 21 -90
31 -36 9 -85 24 -110 31 -125 40 -269 74 -355 85 -190 25 -223 30 -255 40 -19
5 -123 15 -230 20 -107 6 -222 12 -255 15 -33 2 -71 0 -85 -4z m300 -107 c137
-5 238 -17 410 -49 41 -8 100 -17 130 -21 53 -6 130 -24 255 -59 33 -9 79 -21
103 -26 23 -4 51 -13 61 -19 11 -5 28 -10 38 -10 10 0 32 -7 48 -16 17 -9 55
-25 84 -35 30 -11 65 -26 78 -34 12 -8 30 -15 40 -15 37 0 279 -109 350 -157
19 -13 39 -23 44 -23 6 0 17 -7 25 -15 9 -8 24 -15 34 -15 10 0 22 -4 25 -10
3 -5 31 -22 60 -36 30 -14 57 -30 61 -35 6 -10 22 -21 139 -98 33 -22 75 -51
94 -65 19 -15 39 -26 46 -26 6 0 24 -14 41 -31 16 -17 57 -51 92 -77 34 -25
62 -49 62 -53 0 -3 25 -24 56 -45 57 -39 349 -326 367 -360 5 -11 26 -37 47
-59 20 -22 54 -62 74 -90 21 -27 55 -69 77 -92 21 -23 39 -45 39 -49 0 -6 21
-37 123 -181 20 -29 37 -55 37 -58 0 -3 12 -24 27 -48 15 -23 45 -78 68 -122
61 -118 116 -219 125 -230 4 -5 17 -35 28 -65 11 -30 27 -68 36 -85 9 -16 16
-37 16 -45 0 -8 11 -35 25 -59 14 -23 25 -47 25 -53 0 -5 13 -38 29 -73 17
-35 33 -81 36 -102 4 -21 10 -47 15 -58 5 -11 18 -63 30 -115 12 -52 25 -104
30 -115 14 -35 39 -147 50 -225 6 -41 17 -109 26 -150 16 -78 31 -254 36 -420
l3 -95 -80 -5 -80 -5 -3 -33 c-2 -18 2 -40 9 -48 l11 -14 73 0 73 0 5 -12 c2
-7 0 -29 -4 -48 -4 -19 -10 -109 -13 -199 -4 -90 -11 -171 -15 -180 -5 -9 -11
-41 -15 -71 -3 -30 -11 -75 -16 -100 -5 -25 -17 -87 -26 -139 -9 -52 -22 -111
-29 -130 -7 -20 -16 -54 -20 -76 -3 -22 -13 -60 -20 -85 -8 -25 -21 -72 -30
-105 -9 -33 -20 -68 -26 -77 -5 -10 -9 -26 -9 -35 0 -10 -7 -31 -16 -48 -9
-16 -24 -50 -34 -75 -55 -139 -88 -216 -135 -310 -107 -213 -155 -303 -170
-320 -8 -9 -15 -20 -15 -23 0 -4 -19 -34 -42 -68 -24 -33 -54 -77 -68 -98 -66
-100 -84 -126 -101 -145 -11 -11 -19 -23 -19 -28 0 -4 -28 -37 -62 -74 -34
-36 -71 -80 -81 -97 -16 -27 -117 -136 -252 -272 -67 -67 -176 -159 -373 -316
-160 -128 -416 -285 -644 -397 -103 -51 -191 -92 -195 -92 -5 -1 -26 -9 -48
-20 -22 -11 -47 -20 -55 -20 -8 0 -37 -12 -65 -25 -27 -14 -59 -25 -70 -25
-11 0 -30 -6 -41 -14 -11 -8 -42 -19 -70 -24 -27 -6 -62 -15 -79 -20 -16 -6
-50 -16 -75 -23 -25 -6 -72 -19 -105 -29 -125 -37 -183 -48 -355 -71 -41 -5
-86 -14 -100 -18 -84 -31 -906 -31 -990 0 -24 8 -77 17 -248 39 -40 6 -82 15
-92 20 -10 6 -29 10 -42 10 -13 0 -43 7 -68 15 -102 33 -209 64 -265 76 -33 7
-82 23 -109 36 -28 13 -57 23 -66 23 -8 0 -33 10 -55 21 -22 12 -61 28 -87 35
-26 8 -50 19 -53 24 -3 6 -14 10 -23 10 -9 0 -41 13 -69 28 -106 55 -249 130
-303 158 -30 16 -71 41 -91 56 -20 16 -40 28 -46 28 -5 0 -18 9 -28 20 -10 11
-22 20 -28 20 -13 0 -167 102 -221 147 -25 21 -77 63 -117 93 -40 30 -79 62
-88 70 -9 9 -50 45 -91 80 -41 36 -86 79 -101 95 -15 17 -69 72 -119 124 -50
51 -114 124 -141 162 -28 38 -54 69 -58 69 -7 0 -54 61 -157 203 -13 17 -31
45 -40 61 -9 16 -38 59 -65 96 -26 37 -53 78 -59 91 -6 13 -19 38 -30 54 -33
52 -210 408 -210 424 -1 9 -9 34 -20 56 -11 22 -19 45 -20 52 0 7 -11 33 -25
59 -14 26 -25 54 -25 63 0 9 -7 27 -16 40 -9 13 -20 37 -25 55 -4 17 -15 58
-24 91 -9 33 -20 76 -24 95 -5 19 -20 78 -34 130 -13 52 -28 113 -31 135 -18
111 -39 223 -48 253 -5 18 -14 81 -19 140 -4 59 -11 119 -15 133 l-6 26 51 27
c28 14 66 43 85 63 l33 37 18 58 17 59 -17 56 -18 57 -40 43 c-21 23 -56 50
-77 59 l-39 17 -5 23 c-3 12 -2 34 4 49 5 14 10 54 10 88 0 34 5 78 10 97 6
19 15 62 20 95 21 136 31 192 40 230 17 75 41 170 62 245 11 41 22 86 25 100
2 14 8 34 12 45 5 11 16 45 26 75 10 30 30 82 45 115 55 118 70 156 70 170 0
13 35 87 173 363 22 42 43 78 48 80 4 2 18 22 29 45 12 23 43 74 70 112 28 39
68 100 90 137 22 36 58 85 80 108 22 23 52 59 68 79 81 113 142 181 289 326
149 148 286 268 358 315 17 10 43 33 60 50 16 17 57 48 90 68 33 20 86 54 117
76 100 71 176 117 286 171 59 28 137 71 175 94 37 22 72 41 78 41 6 0 35 11
65 25 30 14 60 25 67 25 7 0 30 9 51 19 21 11 51 23 67 26 16 4 48 17 72 29
23 13 60 26 81 30 21 4 46 11 55 16 9 4 45 16 81 25 36 9 79 21 95 27 17 5 51
14 77 18 27 5 52 11 56 14 14 8 307 56 344 56 19 0 39 5 45 11 l11 11 207 9
c115 5 211 12 214 15 3 3 40 3 81 0 41 -3 140 -9 220 -12z m-7065 -1014 c22
-4 66 -9 98 -9 32 -1 104 -11 160 -22 56 -12 122 -25 147 -29 75 -13 145 -28
171 -38 13 -6 51 -18 84 -28 33 -10 64 -22 70 -26 5 -4 18 -8 30 -8 11 0 33
-7 49 -15 15 -8 32 -15 37 -15 5 0 69 -29 142 -65 74 -36 142 -65 153 -65 10
0 34 -14 53 -30 18 -17 38 -30 44 -30 6 0 20 -9 31 -19 12 -10 44 -31 71 -46
55 -29 111 -66 136 -88 10 -8 38 -27 63 -42 25 -15 46 -31 46 -36 0 -4 33 -33
73 -62 119 -89 330 -304 417 -423 19 -27 42 -56 50 -64 45 -49 89 -109 119
-163 18 -34 40 -69 47 -78 8 -8 14 -19 14 -23 0 -5 13 -25 28 -45 29 -36 162
-301 162 -321 0 -6 4 -18 9 -28 29 -56 51 -111 51 -125 0 -9 5 -19 10 -22 6
-3 10 -14 10 -23 0 -9 7 -30 15 -46 8 -15 15 -35 15 -43 0 -8 6 -29 14 -46 19
-45 32 -95 56 -222 11 -60 25 -126 30 -145 14 -55 32 -218 25 -230 -3 -6 -25
-20 -48 -31 -58 -29 -85 -56 -109 -109 l-20 -45 0 -62 c1 -66 8 -87 56 -146
l30 -38 49 -21 48 -21 -6 -76 c-5 -69 -14 -119 -47 -266 -6 -27 -12 -66 -14
-85 -3 -36 -87 -309 -105 -342 -5 -10 -9 -24 -9 -33 0 -8 -13 -41 -29 -72 -17
-32 -40 -83 -52 -113 -35 -88 -101 -220 -124 -249 -24 -29 -105 -166 -105
-176 0 -4 -11 -21 -25 -39 -26 -30 -72 -89 -149 -190 -21 -28 -45 -55 -52 -59
-8 -4 -14 -13 -14 -20 0 -24 -259 -276 -365 -355 -47 -35 -85 -65 -119 -93
-49 -40 -129 -95 -149 -102 -9 -4 -66 -37 -125 -74 -59 -38 -125 -76 -147 -86
-22 -10 -53 -25 -68 -33 -16 -8 -33 -14 -39 -14 -5 0 -40 -14 -76 -31 -37 -17
-114 -46 -172 -65 -58 -19 -112 -38 -120 -43 -9 -5 -30 -12 -48 -15 -17 -4
-34 -12 -37 -17 -4 -5 -21 -9 -39 -9 -19 0 -56 -6 -82 -14 -27 -8 -83 -20
-124 -26 -41 -7 -96 -16 -121 -20 -25 -5 -132 -14 -236 -20 l-191 -11 -153 10
c-179 13 -271 24 -389 46 -47 9 -107 20 -135 25 -27 5 -75 19 -105 31 -30 11
-75 27 -100 34 -25 8 -81 25 -125 38 -44 14 -142 54 -216 91 -75 36 -140 66
-144 66 -5 0 -16 6 -24 14 -9 8 -40 26 -69 41 -29 15 -55 31 -58 36 -5 9 -87
49 -99 49 -3 0 -20 13 -38 30 -18 16 -37 30 -43 30 -5 0 -23 14 -40 31 -16 17
-53 47 -81 66 -29 19 -53 39 -53 44 0 4 -24 24 -52 42 -65 42 -284 266 -358
366 -30 41 -76 97 -101 125 -26 28 -57 71 -70 96 -13 25 -36 63 -51 84 -15 21
-28 43 -28 48 0 5 -18 36 -41 69 -43 64 -103 187 -144 294 -13 36 -31 76 -40
88 -8 12 -15 31 -15 44 0 12 -4 25 -10 28 -5 3 -10 14 -10 23 0 9 -7 30 -15
46 -8 15 -15 36 -15 45 0 9 -7 29 -15 45 -8 15 -15 36 -15 45 0 9 -7 29 -15
45 -8 15 -15 43 -15 62 0 19 -4 53 -10 76 -38 170 -81 543 -65 568 3 5 34 10
68 10 34 0 68 4 75 9 l13 8 -3 39 -3 39 -68 1 -67 0 -11 11 -11 11 16 178 c15
174 28 268 47 329 4 17 13 59 18 95 10 59 26 132 39 170 3 8 18 51 34 95 16
44 33 96 39 115 6 19 18 44 25 55 8 11 14 29 14 41 0 12 7 24 15 28 8 3 15 15
15 27 0 29 115 258 145 290 14 14 25 29 25 33 0 17 88 156 140 219 30 37 70
89 88 115 78 110 317 360 379 396 16 9 53 38 83 66 61 57 253 191 297 207 10
4 53 31 95 60 43 29 84 53 92 53 8 0 67 26 133 59 65 32 129 62 143 66 14 4
30 11 35 15 6 4 37 15 70 25 33 10 94 29 135 42 73 24 144 40 303 68 42 8 82
17 87 20 49 30 591 49 705 25z"/>
<path d="M8469 5355 c-3 -2 -30 -8 -60 -12 l-54 -8 0 -20 0 -20 43 -5 42 -5
20 -30 c11 -16 20 -40 20 -52 0 -12 5 -25 10 -28 28 -17 7 -76 -50 -137 l-34
-38 -41 0 -42 0 -18 -20 -19 -21 10 -27 9 -27 51 -3 51 -3 42 47 c23 26 49 60
57 76 19 37 19 37 40 -29 10 -31 26 -65 36 -75 l18 -18 36 0 35 0 35 27 c19
14 39 34 44 43 l9 17 -13 18 -12 17 -32 -16 c-37 -19 -60 -12 -69 22 -3 14
-12 37 -19 51 -18 34 -18 76 1 91 8 6 17 22 21 33 9 29 33 46 66 47 15 0 39 5
53 12 l25 11 7 25 6 25 -24 18 c-44 34 -126 -4 -165 -77 -23 -43 -35 -39 -54
18 -21 65 -57 97 -81 73z"/>
<path d="M9010 5153 c-18 -8 -48 -42 -56 -67 -3 -11 -18 -29 -33 -42 -15 -12
-33 -35 -41 -51 -8 -15 -30 -47 -47 -71 -33 -43 -39 -65 -27 -96 l6 -16 83 0
84 0 3 -42 3 -43 33 -3 c42 -4 62 12 62 50 l0 29 30 10 29 11 7 21 6 20 -18
14 c-10 7 -29 13 -42 13 l-24 0 4 125 3 126 -15 9 c-17 11 -28 11 -50 3z m-20
-205 l0 -56 -12 -5 c-12 -4 -79 2 -86 8 -5 4 21 55 28 55 3 0 17 18 29 41 l23
41 9 -13 c5 -8 9 -39 9 -71z"/>
<path d="M8435 3943 c-66 -7 -91 -46 -37 -59 15 -4 38 -15 52 -24 l25 -18 18
-50 c20 -59 22 -108 4 -119 -7 -4 -26 -25 -41 -45 l-28 -38 -54 0 -53 0 -11
-20 -11 -21 7 -22 c9 -30 22 -37 75 -37 l45 0 27 28 c15 15 27 31 27 35 0 4
10 22 22 40 13 18 24 34 25 36 7 11 33 -24 39 -52 3 -18 15 -44 26 -59 l19
-28 40 0 40 0 46 43 46 43 -12 22 c-15 27 -33 28 -56 2 -10 -11 -24 -20 -31
-20 -19 0 -54 49 -54 76 0 12 -4 26 -10 29 -5 3 -10 20 -10 37 l0 30 30 37
c17 20 35 42 41 49 l10 12 45 0 44 0 11 27 10 27 -12 23 -12 23 -38 0 -37 0
-30 -25 c-17 -14 -43 -46 -58 -72 l-27 -46 -24 63 c-31 84 -29 83 -128 73z"/>
<path d="M8904 3740 c-26 -10 -77 -77 -69 -90 9 -15 31 -12 45 5 l13 16 46 -3
46 -3 3 -18 c2 -10 1 -29 -2 -42 l-6 -24 -41 -12 -40 -12 3 -26 3 -26 37 -6
c76 -12 105 -96 44 -129 l-23 -12 -38 16 c-20 9 -48 16 -61 16 l-24 0 -11 -24
-11 -23 11 -20 10 -20 38 -7 c81 -13 94 -10 175 42 l37 24 10 30 c6 17 11 46
11 64 l0 32 -40 35 -41 35 26 30 25 30 0 34 c0 37 -12 56 -50 82 l-24 16 -41
-1 c-22 0 -49 -4 -61 -9z"/>
<path d="M6326 5349 c-32 -5 -65 -14 -72 -20 l-14 -12 11 -13 c6 -8 24 -14 38
-14 l27 0 27 -28 c48 -51 71 -148 41 -173 -9 -8 -27 -31 -40 -51 l-24 -38 -49
0 -48 0 -16 -18 c-22 -24 -21 -45 1 -65 l19 -17 40 0 40 0 42 45 c22 24 41 50
41 57 0 15 35 40 44 31 3 -4 6 -17 6 -30 0 -60 43 -103 102 -103 l34 0 37 38
c55 56 50 91 -8 66 -49 -20 -53 -19 -74 29 -41 89 -37 136 16 193 l30 32 37
-2 38 -1 21 28 21 28 -10 16 c-6 9 -18 21 -26 27 l-16 10 -42 -14 c-42 -14
-64 -36 -109 -109 -12 -19 -28 -6 -36 29 -7 30 -50 91 -63 89 -4 -1 -33 -5
-66 -10z"/>
<path d="M6785 5141 l-50 -17 0 -20 0 -19 34 -5 33 -5 -1 -144 c-2 -156 -3
-161 -30 -161 -10 0 -24 -7 -31 -15 l-12 -15 12 -15 13 -16 101 3 101 3 0 25
0 25 -27 3 -28 3 0 189 0 188 -16 6 c-24 9 -45 7 -99 -13z"/>
<path d="M6659 3928 l-34 -23 -25 -52 -26 -52 -16 32 c-9 18 -19 42 -23 53 -3
12 -14 29 -24 38 l-19 17 -73 -8 -74 -8 0 -20 0 -20 36 -3 37 -3 19 -22 c20
-21 63 -125 63 -150 0 -7 -24 -38 -52 -69 l-53 -57 -41 6 -41 5 -16 -22 -15
-21 5 -20 c3 -11 16 -27 29 -36 l23 -15 33 7 c47 10 77 32 95 68 46 99 63 115
63 61 0 -13 5 -26 10 -29 6 -3 10 -17 10 -31 0 -13 9 -33 20 -44 l20 -20 44 0
44 0 37 41 36 41 -5 15 c-3 8 -6 19 -6 24 0 17 -23 9 -48 -18 l-25 -27 -23 28
c-13 15 -24 37 -24 49 0 12 -7 31 -15 41 -27 36 -18 62 50 139 8 9 26 17 40
17 59 0 92 37 78 88 l-5 22 -38 0 -37 0 -34 -22z"/>
<path d="M6871 3738 c-26 -14 -74 -95 -65 -109 8 -14 21 -11 52 16 l30 25 39
0 40 0 13 -24 13 -24 -7 -37 -7 -37 -49 -62 c-27 -33 -69 -80 -94 -104 l-45
-43 6 -15 c9 -25 42 -30 160 -24 l112 5 12 12 c6 6 14 32 16 57 l6 46 -23 0
c-12 0 -33 -9 -47 -20 l-26 -20 -38 0 c-57 0 -55 12 14 76 34 33 71 73 81 89
l20 30 0 48 0 48 -36 35 -35 36 -59 4 -59 5 -24 -13z"/>
<path d="M978 4612 c-49 -28 -90 -78 -101 -122 -3 -14 -11 -45 -17 -70 l-12
-45 5 -85 c3 -47 13 -106 22 -132 l17 -47 36 -32 c19 -17 50 -38 68 -45 l33
-14 48 5 48 5 40 28 c47 33 76 84 94 166 l13 59 -7 86 -7 86 -23 50 c-55 120
-158 162 -257 107z m120 -58 c12 -8 30 -32 38 -52 l17 -37 4 -110 5 -110 -15
-53 c-9 -29 -26 -66 -37 -82 l-21 -30 -23 0 -22 0 -28 29 -27 28 -15 54 -14
54 1 92 2 92 16 52 c26 79 71 107 119 73z"/>
<path d="M16353 4627 c-49 -19 -102 -68 -125 -117 l-21 -45 -1 -130 0 -130 12
-42 c28 -95 105 -141 225 -135 l38 2 48 49 48 49 18 53 19 54 0 82 c0 157 -50
265 -142 304 -49 21 -73 23 -119 6z m100 -85 l26 -27 15 -87 15 -88 -10 -82
c-15 -122 -49 -178 -106 -178 l-23 0 -27 43 -28 42 0 161 0 160 28 42 27 42
28 0 28 0 27 -28z"/>
</g>
</svg>
