<?xml version="1.0" standalone="no"?>
<!DOCTYPE svg PUBLIC "-//W3C//DTD SVG 20010904//EN"
 "http://www.w3.org/TR/2001/REC-SVG-20010904/DTD/svg10.dtd">
<svg version="1.0" xmlns="http://www.w3.org/2000/svg"
 width="1800.000000pt" height="981.000000pt" viewBox="0 0 1800.000000 981.000000"
 preserveAspectRatio="xMidYMid meet">
<g transform="translate(0.000000,981.000000) scale(0.100000,-0.100000)"
fill="#000000" stroke="none">
<path d="M9073 9515 c-12 -8 -24 -30 -28 -48 -8 -36 -24 -89 -61 -197 -32 -94
-45 -139 -47 -165 l-2 -20 27 -3 27 -3 7 28 c3 15 12 42 20 60 8 17 14 39 14
50 1 10 7 29 15 43 8 14 14 35 15 47 0 12 6 34 14 50 18 37 37 91 43 124 l5
25 -14 12 -14 11 -21 -14z"/>
<path d="M9245 9484 c-6 -1 -22 -5 -36 -8 l-27 -6 -21 -36 c-34 -57 -12 -76
42 -34 14 11 34 20 46 20 l20 0 12 -21 11 -21 -6 -32 -6 -32 -70 -74 c-38 -41
-68 -82 -67 -90 l2 -15 105 -3 c121 -2 130 1 137 56 l6 42 -17 6 -17 7 -20
-22 -20 -21 -29 0 c-40 0 -38 8 15 60 25 24 50 59 56 77 l11 33 -7 40 c-9 51
-67 87 -120 74z"/>
<path d="M8684 9393 c-12 -2 -32 -15 -44 -28 l-23 -24 7 -16 6 -17 40 7 40 7
0 -9 c0 -5 -5 -14 -11 -20 -6 -6 -16 -21 -23 -32 -6 -11 -24 -38 -40 -60 l-28
-40 6 -16 5 -15 36 0 36 0 5 18 c3 9 12 31 19 47 8 17 22 52 31 78 19 52 30
65 46 49 l11 -11 -15 -33 c-9 -18 -19 -50 -22 -70 l-7 -38 11 -20 11 -20 37 0
c42 0 62 14 62 42 l0 18 -26 10 -26 10 6 16 c3 9 9 33 12 55 l7 39 12 0 c43 0
84 40 67 66 l-7 11 -110 0 c-60 0 -120 -2 -131 -4z"/>
<path d="M8515 8809 c-38 -4 -113 -10 -165 -14 -87 -5 -156 -13 -385 -45 -44
-6 -111 -15 -150 -20 -38 -4 -83 -13 -98 -19 -16 -6 -44 -11 -64 -11 -20 0
-59 -6 -87 -14 -53 -15 -130 -32 -206 -45 -25 -4 -61 -12 -80 -18 -52 -17
-119 -33 -174 -43 -27 -5 -54 -14 -60 -20 -5 -5 -24 -10 -41 -10 -16 0 -43 -7
-59 -15 -15 -8 -40 -15 -55 -15 -15 0 -36 -7 -47 -15 -10 -8 -28 -14 -39 -15
-21 0 -98 -23 -150 -45 -16 -7 -59 -22 -95 -33 -104 -33 -133 -44 -162 -58
-14 -8 -31 -14 -38 -14 -13 0 -65 -21 -113 -46 -16 -8 -35 -14 -42 -14 -7 0
-26 -6 -42 -14 -15 -8 -45 -21 -65 -30 -84 -35 -106 -45 -173 -76 -38 -18
-116 -55 -173 -83 l-103 -51 -10 15 c-5 8 -9 20 -9 27 0 7 -11 18 -25 24 l-25
11 -21 -27 c-11 -14 -26 -32 -32 -39 -55 -58 -147 -166 -156 -185 -17 -32 -8
-37 38 -24 21 7 56 12 78 12 22 0 65 5 94 11 30 6 71 14 92 19 51 10 54 15 33
51 -23 40 -17 52 41 79 93 42 129 58 188 85 33 14 75 33 93 41 34 15 77 34
140 60 20 9 50 22 65 30 16 8 36 14 46 14 9 0 26 7 37 15 10 8 28 15 40 15 11
0 29 7 40 15 10 8 28 15 40 15 11 0 25 5 31 11 6 6 26 14 44 19 46 12 186 59
227 76 18 8 40 14 50 14 9 0 30 7 46 15 15 8 38 15 50 15 11 0 34 7 50 15 15
8 40 15 55 15 14 1 37 7 51 15 14 8 39 14 55 15 17 0 43 7 59 15 15 8 41 15
57 15 17 0 46 7 66 15 19 8 48 15 64 15 16 0 46 6 66 14 38 14 109 28 232 46
35 5 77 14 95 19 38 12 151 29 271 40 50 5 110 14 135 20 25 5 93 12 152 15
59 3 129 11 155 17 l48 11 500 -1 500 0 55 -11 c30 -6 105 -13 165 -16 61 -3
140 -12 177 -20 37 -8 91 -14 120 -14 29 0 75 -7 102 -15 27 -8 68 -15 92 -15
23 0 55 -5 71 -11 15 -6 55 -14 88 -19 85 -11 173 -29 225 -46 25 -8 61 -14
80 -14 19 -1 46 -7 60 -15 14 -8 39 -14 56 -15 18 0 45 -7 60 -15 16 -8 43
-15 59 -15 17 -1 41 -7 55 -15 14 -8 38 -14 53 -15 16 0 38 -5 50 -12 12 -6
38 -15 57 -19 37 -8 85 -23 138 -45 18 -8 41 -14 51 -14 10 0 32 -7 47 -15 16
-8 38 -15 49 -15 11 0 29 -7 39 -15 11 -8 29 -15 41 -15 12 0 25 -4 31 -9 5
-5 25 -14 44 -19 62 -19 125 -43 134 -53 6 -5 19 -9 30 -9 12 0 30 -7 40 -15
11 -8 28 -15 37 -15 10 0 30 -6 46 -14 29 -15 145 -68 198 -91 17 -7 58 -27
93 -44 34 -17 67 -31 73 -31 6 0 17 -7 25 -15 9 -8 24 -15 33 -15 10 0 24 -7
31 -15 7 -8 19 -15 27 -15 8 0 21 -7 29 -15 9 -8 24 -15 34 -15 10 0 22 -4 25
-10 3 -5 30 -22 58 -36 69 -34 92 -47 110 -63 9 -7 28 -11 44 -9 l28 3 0 29 0
29 -15 8 c-8 4 -22 10 -30 14 -8 3 -55 28 -105 55 -95 51 -250 128 -325 162
-25 11 -52 24 -60 29 -8 5 -22 12 -30 15 -8 3 -30 12 -47 20 -18 8 -48 21 -68
30 -19 8 -50 21 -70 30 -77 32 -102 43 -145 59 -25 10 -57 23 -72 31 -14 8
-34 14 -45 14 -10 0 -27 7 -37 15 -11 8 -28 15 -38 15 -10 0 -26 4 -36 10 -20
12 -94 38 -137 49 -17 4 -40 13 -52 19 -12 7 -32 12 -45 12 -13 0 -28 4 -34 9
-5 6 -27 14 -49 20 -22 5 -53 14 -70 19 -16 6 -57 18 -90 27 -33 9 -80 23
-105 31 -25 8 -56 14 -71 14 -14 0 -30 5 -36 11 -6 6 -35 14 -64 19 -54 9
-103 20 -193 46 -26 8 -62 14 -80 14 -17 0 -49 7 -71 15 -22 8 -61 14 -86 15
-26 0 -63 7 -82 15 -20 8 -59 15 -86 15 -27 0 -62 5 -76 10 -15 6 -73 14 -130
19 -57 5 -109 12 -114 16 -6 3 -77 10 -158 15 -82 6 -186 14 -233 19 -100 11
-854 11 -955 0z m-2905 -849 c15 -37 16 -36 -42 -42 l-48 -6 0 11 c0 15 61 77
70 72 4 -3 13 -18 20 -35z"/>
<path d="M8205 7871 c-11 -5 -37 -10 -57 -10 -63 -1 -213 -73 -286 -137 -102
-89 -166 -193 -216 -350 l-16 -52 0 -88 1 -89 14 -40 c8 -22 15 -49 15 -61 0
-11 7 -29 15 -40 8 -10 15 -25 15 -33 0 -7 14 -33 30 -58 17 -24 30 -46 30
-49 0 -31 166 -171 245 -208 22 -11 49 -24 60 -29 77 -40 361 -40 441 1 11 5
37 18 59 28 70 33 120 71 186 142 l64 68 32 64 c18 36 40 85 49 110 l16 45 5
122 5 121 -17 59 c-49 166 -171 340 -270 384 -11 5 -38 20 -60 34 -22 13 -49
24 -60 25 -12 0 -26 5 -33 12 -21 21 -233 44 -267 29z m180 -81 c55 -12 108
-30 145 -52 8 -4 22 -11 30 -15 41 -17 123 -89 162 -140 41 -55 53 -77 95
-168 l18 -40 0 -140 0 -141 -19 -44 c-46 -110 -48 -114 -107 -185 -54 -65
-134 -124 -199 -149 -8 -3 -22 -10 -30 -15 -35 -21 -121 -36 -205 -36 l-90 0
-50 14 c-27 8 -79 28 -114 45 l-65 31 -77 75 c-42 41 -79 82 -83 90 -3 8 -17
35 -31 59 -14 24 -25 51 -25 59 0 7 -7 29 -16 47 l-15 33 3 123 4 124 14 35
c7 19 27 64 44 99 l31 64 60 63 c32 35 63 64 67 64 4 0 27 13 50 29 24 16 56
33 71 36 15 4 30 11 33 16 3 5 17 9 32 10 15 0 47 7 72 14 49 15 103 13 195
-5z"/>
<path d="M9660 7871 c-14 -5 -43 -9 -66 -10 -22 -1 -49 -8 -60 -16 -10 -8 -27
-15 -37 -15 -25 0 -111 -49 -166 -95 -111 -93 -168 -179 -216 -330 l-16 -50
-32 -15 -32 -15 -23 -46 -23 -47 16 -37 c16 -40 45 -71 77 -81 l19 -6 6 -29
c3 -16 10 -32 14 -35 5 -3 9 -14 9 -25 0 -11 16 -51 36 -90 l36 -69 67 -69
c124 -129 207 -168 423 -200 l56 -9 44 10 c23 5 64 11 90 15 26 3 53 12 59 19
6 8 18 14 25 14 49 0 264 159 264 195 0 7 7 15 15 19 8 3 15 12 15 21 0 8 3
15 8 15 4 0 18 24 31 53 12 28 28 61 34 72 6 11 14 38 18 60 4 22 12 67 18
100 l11 60 -10 53 c-6 28 -14 74 -19 101 -5 27 -14 57 -19 67 -5 11 -17 37
-28 59 -61 131 -212 267 -358 322 -79 29 -242 49 -286 34z m160 -77 c240 -52
397 -194 458 -413 l16 -56 0 -95 0 -95 -13 -45 c-8 -25 -20 -57 -27 -72 -8
-14 -14 -31 -14 -37 0 -26 -144 -201 -166 -201 -3 0 -23 -13 -44 -30 -21 -16
-43 -30 -50 -30 -7 0 -24 -6 -38 -14 -15 -7 -47 -19 -72 -27 l-45 -13 -95 0
-95 0 -55 16 c-138 40 -247 117 -321 228 -24 36 -46 70 -48 75 -2 6 -12 29
-22 52 -25 56 -24 70 10 99 16 14 35 40 41 59 l12 35 -7 32 -7 32 -35 32 -35
33 7 31 c27 123 183 305 305 355 8 4 26 12 40 18 29 13 163 43 200 46 14 1 59
-6 100 -15z"/>
<path d="M4678 7260 l-87 -5 -13 -12 c-6 -7 -20 -13 -30 -13 -113 0 -398 -293
-398 -409 0 -10 -7 -35 -15 -54 l-15 -36 0 -106 0 -106 15 -36 c8 -19 15 -46
15 -58 0 -12 7 -28 15 -35 8 -7 15 -19 15 -27 0 -71 198 -275 310 -319 8 -3
27 -12 42 -20 14 -8 37 -14 51 -14 13 0 41 -7 60 -15 l36 -15 83 0 83 1 40 14
c22 8 49 15 61 15 11 0 29 7 40 15 10 8 25 15 33 15 76 1 271 195 324 322 8
19 20 39 26 42 l11 7 0 -13 c1 -31 74 -153 124 -206 77 -83 211 -163 321 -193
l50 -14 107 0 107 0 13 13 c6 6 26 12 42 12 118 0 331 178 408 340 69 147 84
382 30 486 -5 11 -20 41 -33 67 -13 27 -30 61 -38 75 -19 36 -162 179 -192
192 -13 5 -32 14 -41 20 -10 5 -26 15 -35 20 -20 11 -20 11 -88 34 l-50 16
-140 0 -140 0 -29 -15 c-15 -8 -34 -15 -41 -15 -6 0 -32 -11 -56 -25 -24 -14
-51 -28 -59 -31 -20 -9 -101 -74 -123 -99 -10 -11 -30 -33 -44 -49 -29 -32
-93 -152 -93 -174 0 -24 -20 -2 -46 53 -35 75 -103 164 -155 205 -24 19 -46
37 -49 41 -9 12 -139 79 -153 79 -8 0 -27 6 -43 14 -35 17 -136 23 -256 16z
m267 -93 c17 -8 50 -25 75 -36 69 -33 81 -42 145 -106 66 -66 75 -78 106 -145
12 -25 29 -60 38 -79 l16 -34 0 -136 0 -136 -20 -50 c-76 -193 -200 -308 -395
-369 l-55 -17 -110 3 -110 4 -35 14 c-203 79 -306 180 -381 370 l-13 35 -4
128 -3 128 17 47 c58 163 161 287 287 344 20 10 52 24 70 32 45 21 84 25 222
21 l121 -4 29 -14z m1211 -1 c13 -9 32 -16 42 -16 11 0 25 -7 32 -15 7 -8 17
-15 22 -15 26 0 138 -100 195 -175 19 -24 73 -146 73 -164 0 -11 7 -47 16 -82
l16 -62 -18 -96 c-9 -53 -23 -105 -31 -116 -7 -11 -13 -26 -13 -33 0 -8 -13
-34 -30 -59 -16 -24 -30 -47 -30 -51 0 -11 -115 -118 -143 -133 -63 -34 -116
-57 -167 -73 l-55 -17 -110 3 -110 4 -35 13 c-19 8 -46 19 -60 25 -14 5 -33
13 -42 16 -31 10 -153 112 -186 157 -196 260 -150 604 108 803 112 87 195 110
378 105 l124 -4 24 -15z"/>
<path d="M11950 7259 c-73 -6 -115 -17 -173 -45 -16 -8 -33 -14 -37 -14 -40 0
-224 -172 -259 -241 -12 -24 -26 -51 -30 -59 -34 -64 -31 -53 -63 -213 l-12
-58 12 -62 c26 -138 36 -166 108 -300 38 -69 227 -226 275 -227 8 0 23 -7 33
-15 11 -8 28 -15 39 -15 10 0 40 -7 66 -16 l49 -16 83 4 c105 5 201 29 269 69
8 5 29 15 45 22 90 42 227 203 266 315 l12 34 40 -84 41 -83 77 -75 c88 -86
100 -97 131 -110 13 -6 30 -14 38 -19 48 -27 80 -41 97 -41 10 0 36 -7 58 -15
l40 -14 85 0 85 0 40 14 c22 8 48 15 58 15 78 0 308 171 350 259 4 9 16 30 27
46 11 17 22 37 25 45 3 8 13 28 21 43 7 16 14 38 14 50 0 12 7 44 15 71 17 57
19 134 4 191 -6 22 -14 59 -18 83 -4 24 -13 48 -19 54 -7 7 -12 18 -12 26 0
31 -77 140 -146 207 l-72 70 -71 38 c-39 20 -77 37 -84 37 -8 0 -28 7 -45 15
l-31 16 -140 0 -140 0 -30 -16 c-17 -8 -37 -15 -45 -15 -92 0 -285 -177 -358
-328 l-35 -73 -18 48 c-10 27 -24 55 -31 64 -8 8 -14 19 -14 23 0 11 -94 127
-117 146 -71 57 -181 120 -209 120 -8 0 -25 6 -37 14 l-22 14 -80 4 c-44 1
-114 0 -155 -3z m257 -88 c10 -5 41 -20 68 -33 68 -31 111 -62 170 -125 65
-69 66 -70 93 -128 13 -27 27 -58 33 -67 5 -10 14 -60 21 -112 l12 -94 -14
-83 c-7 -45 -19 -94 -26 -108 -8 -14 -14 -30 -14 -34 0 -34 -157 -217 -205
-239 -11 -5 -40 -20 -65 -33 -25 -13 -54 -24 -65 -25 -11 0 -31 -7 -45 -15
l-25 -14 -108 -1 -108 0 -60 20 c-33 12 -68 25 -77 30 -9 5 -24 11 -32 14 -97
37 -270 246 -270 327 0 9 -7 33 -15 52 l-15 36 0 82 0 82 16 56 c9 31 22 70
30 86 7 17 15 37 18 45 28 75 156 200 249 242 20 10 52 24 70 32 56 26 320 31
364 7z m1223 -4 c19 -9 42 -18 50 -21 96 -37 237 -178 274 -276 3 -8 10 -22
15 -30 19 -33 34 -110 38 -200 l5 -95 -18 -55 c-17 -57 -40 -114 -56 -140 -5
-8 -11 -22 -14 -30 -6 -18 -149 -159 -179 -177 -35 -21 -99 -49 -151 -66 l-52
-17 -101 0 -102 0 -62 21 c-34 11 -66 25 -71 30 -6 5 -16 9 -23 9 -18 0 -112
70 -158 117 -80 83 -120 164 -143 295 l-16 87 13 93 c7 51 17 98 21 103 4 6
11 21 15 35 27 90 165 235 268 282 20 10 52 24 70 32 44 21 83 25 222 21 l120
-3 35 -15z"/>
<path d="M2288 6626 c-7 -14 -35 -58 -63 -98 -53 -78 -68 -101 -85 -133 -6
-11 -19 -33 -30 -50 -20 -32 -143 -276 -168 -335 -8 -19 -21 -47 -29 -62 -7
-14 -13 -34 -13 -45 0 -10 -7 -27 -15 -37 -8 -11 -15 -27 -15 -37 0 -9 -7 -30
-15 -45 -8 -16 -15 -38 -15 -49 -1 -11 -7 -31 -15 -45 -8 -14 -14 -39 -15 -55
0 -17 -5 -36 -11 -42 -6 -6 -14 -35 -19 -64 -11 -64 -27 -146 -41 -209 -28
-119 -48 -494 -37 -665 15 -223 25 -333 33 -345 4 -6 11 -37 15 -68 4 -32 13
-79 20 -107 19 -78 41 -157 52 -190 5 -16 13 -47 18 -68 4 -21 13 -44 19 -50
6 -6 11 -19 11 -29 0 -17 18 -65 46 -121 8 -16 14 -37 14 -47 0 -9 7 -23 15
-30 8 -7 15 -19 15 -27 0 -8 6 -27 14 -41 8 -15 24 -47 36 -72 12 -25 37 -72
56 -105 19 -33 40 -71 47 -84 l12 -24 -13 -5 c-7 -2 -25 -16 -39 -30 l-26 -25
34 -28 c19 -16 40 -29 47 -29 6 0 12 -3 12 -7 0 -5 17 -19 38 -32 20 -14 58
-42 84 -63 26 -21 54 -38 62 -38 l16 0 0 38 c0 20 -5 53 -11 72 -12 39 -36
136 -47 190 l-7 35 -21 3 c-11 2 -27 -4 -34 -13 -7 -8 -21 -15 -31 -15 l-18 0
-13 25 c-7 13 -30 59 -51 102 -21 43 -43 85 -48 93 -5 8 -12 22 -15 30 -9 24
-35 83 -50 113 -8 16 -14 36 -14 45 0 9 -7 26 -15 36 -8 11 -15 29 -15 41 0
12 -7 30 -15 41 -8 10 -15 30 -15 44 0 14 -6 34 -14 45 -7 11 -16 39 -20 63
-3 24 -10 51 -15 60 -9 18 -26 92 -41 180 -4 29 -13 74 -19 100 -6 26 -16 92
-23 147 l-13 100 0 250 1 250 12 95 c7 52 20 123 28 157 7 34 14 75 14 91 0
16 7 46 15 65 8 20 15 49 15 66 0 16 7 42 15 57 8 16 15 40 15 54 1 14 7 36
15 50 8 14 15 36 15 50 0 14 7 34 15 44 8 11 15 29 15 40 0 12 7 30 15 40 8
11 15 28 15 37 0 10 7 30 15 46 8 15 44 89 80 163 73 149 103 203 146 268 16
24 29 45 29 48 0 3 20 32 45 64 25 32 45 63 45 68 0 5 7 12 15 16 35 13 9 66
-31 66 l-23 0 -13 -24z m-54 -3427 c13 -67 -1 -77 -50 -34 l-29 26 24 19 c33
28 48 25 55 -11z"/>
<path d="M15657 6619 l-17 -10 15 -22 c8 -12 15 -34 15 -50 0 -15 7 -44 15
-64 8 -19 15 -45 16 -57 1 -35 35 -130 48 -134 7 -2 22 6 33 17 11 12 27 21
35 19 l16 -3 69 -140 c38 -77 76 -156 85 -175 8 -19 21 -48 29 -63 8 -16 14
-35 14 -44 0 -8 6 -27 14 -41 17 -34 35 -86 47 -137 6 -22 14 -44 20 -50 5 -5
9 -23 9 -40 1 -16 7 -41 15 -55 8 -14 14 -40 15 -58 0 -18 7 -49 15 -69 8 -19
15 -51 15 -71 0 -20 6 -61 14 -91 17 -66 37 -277 43 -443 l5 -116 -16 -122
c-9 -67 -16 -146 -16 -177 0 -30 -4 -62 -10 -72 -5 -10 -14 -49 -19 -87 -14
-99 -31 -174 -47 -212 -8 -18 -14 -43 -14 -56 0 -13 -7 -37 -15 -52 -8 -16
-15 -40 -15 -54 0 -14 -7 -34 -15 -44 -8 -11 -15 -29 -15 -41 0 -12 -7 -30
-15 -41 -8 -10 -15 -27 -15 -37 0 -11 -6 -31 -14 -45 -7 -15 -21 -43 -29 -62
-38 -87 -163 -332 -180 -355 -4 -5 -36 -53 -71 -106 -34 -54 -70 -105 -79
-114 -9 -9 -17 -27 -17 -40 l0 -23 16 -6 c30 -11 51 -6 63 17 17 32 29 51 102
162 73 111 67 100 163 292 38 76 75 150 82 165 8 14 14 33 14 41 0 9 6 28 14
44 26 51 46 103 46 117 0 8 7 27 15 42 8 16 15 39 15 50 0 12 7 35 15 50 8 16
15 39 15 50 0 12 7 38 15 57 8 20 15 50 15 67 0 17 5 40 11 51 6 11 14 50 19
87 4 37 13 94 18 127 6 33 16 146 23 251 l12 192 -11 114 c-7 63 -12 141 -12
174 0 32 -7 86 -15 119 -8 33 -14 76 -15 96 0 20 -7 56 -15 79 -8 23 -15 55
-15 70 0 15 -7 44 -15 63 -8 20 -15 46 -15 58 0 11 -6 35 -14 52 -8 18 -16 43
-19 57 -6 33 -26 88 -43 123 -8 16 -14 36 -14 46 0 9 -7 26 -15 37 -8 10 -15
25 -15 31 0 23 -93 220 -140 298 -16 28 -36 64 -43 80 l-14 30 33 25 c47 35
45 39 -56 111 -50 35 -108 79 -128 96 -40 35 -48 38 -75 22z m150 -161 l44
-32 -18 -14 c-10 -7 -26 -18 -36 -23 l-17 -10 -4 13 c-2 7 -8 29 -15 49 -19
61 -17 61 46 17z"/>
<path d="M2915 5781 c-34 -10 -74 -42 -81 -64 -9 -29 -33 -46 -65 -47 -194 -2
-505 -238 -613 -465 -10 -22 -25 -52 -33 -67 -7 -14 -13 -35 -13 -45 0 -10 -5
-24 -11 -30 -28 -28 -44 -299 -25 -413 18 -105 81 -255 145 -345 39 -56 160
-185 172 -185 4 0 20 -11 35 -25 29 -27 43 -36 121 -74 26 -13 56 -27 65 -32
19 -10 78 -26 154 -42 l51 -11 19 -35 c50 -91 170 -91 216 0 l18 34 52 12 c91
20 138 33 156 42 9 5 28 14 42 20 117 51 245 156 338 277 42 55 122 211 122
239 0 11 5 26 11 32 42 42 42 464 0 506 -6 6 -11 20 -11 30 0 10 -6 31 -13 45
-8 15 -22 45 -33 67 -21 45 -55 98 -66 103 -5 2 -8 9 -8 16 0 26 -167 186
-245 233 -52 32 -164 83 -183 83 -11 0 -23 4 -27 9 -3 6 -27 13 -53 16 -73 10
-83 15 -93 44 -18 50 -93 88 -144 72z m-64 -203 l37 -43 57 0 57 0 28 31 c15
17 29 37 32 44 l4 12 59 -17 c68 -20 117 -39 158 -60 16 -8 35 -15 42 -15 7 0
15 -4 17 -8 2 -4 21 -19 43 -32 58 -35 110 -82 188 -168 20 -22 37 -44 37 -48
0 -4 6 -15 14 -23 22 -25 76 -132 76 -150 0 -10 7 -26 15 -37 8 -10 15 -33 15
-51 0 -18 7 -53 16 -78 l15 -47 -4 -91 c-4 -97 -21 -190 -43 -244 -8 -17 -14
-35 -14 -41 0 -13 -56 -118 -97 -178 -94 -144 -292 -277 -473 -318 l-55 -13
-30 34 -30 35 -35 7 c-19 4 -50 4 -69 0 l-34 -7 -29 -35 -30 -34 -56 12 c-32
7 -70 18 -87 25 -56 24 -160 74 -165 80 -3 3 -24 18 -47 33 -142 97 -265 288
-311 482 l-16 70 0 105 c0 104 14 196 40 257 8 17 14 35 14 41 0 21 80 160
120 207 78 93 278 245 323 245 7 0 25 7 40 15 15 8 45 17 65 21 20 4 44 10 52
15 22 12 21 13 61 -33z"/>
<path d="M14950 5688 c-25 -5 -65 -12 -90 -17 -190 -36 -413 -189 -529 -361
-60 -91 -131 -245 -131 -288 0 -15 -7 -45 -15 -67 l-14 -40 0 -95 c0 -52 4
-115 10 -140 6 -25 14 -64 18 -88 4 -24 13 -48 19 -54 7 -7 12 -24 12 -39 0
-15 7 -32 15 -39 8 -7 15 -18 15 -26 0 -57 218 -321 283 -343 7 -2 14 -7 17
-11 9 -11 127 -80 138 -80 6 0 23 -6 39 -14 76 -38 274 -73 364 -63 117 12
192 26 202 36 6 6 19 11 29 11 16 0 139 55 183 83 144 89 267 225 336 367 12
25 28 57 35 72 8 14 14 35 14 46 0 11 8 37 17 58 l17 39 0 170 1 170 -19 55
c-49 144 -113 269 -171 335 -15 17 -38 42 -51 58 -31 37 -179 147 -229 171
-22 10 -48 23 -57 27 -42 21 -107 42 -153 49 -27 5 -70 13 -95 19 -54 12 -148
12 -210 -1z m260 -83 c23 -8 55 -15 71 -15 15 0 30 -4 34 -9 3 -5 19 -13 37
-16 17 -4 53 -20 80 -36 27 -16 53 -29 58 -29 6 0 10 -4 10 -9 0 -5 9 -13 21
-16 27 -9 195 -173 208 -205 6 -14 20 -38 31 -55 11 -16 22 -37 26 -45 3 -8
10 -23 16 -34 68 -127 86 -439 32 -563 -8 -17 -14 -40 -14 -51 0 -11 -7 -25
-15 -32 -8 -7 -15 -18 -15 -25 0 -13 -29 -74 -40 -85 -3 -3 -18 -24 -33 -46
-117 -173 -309 -287 -554 -329 l-102 -18 -73 13 c-40 7 -93 16 -118 20 -67 11
-159 48 -225 91 -16 10 -40 23 -51 28 -38 17 -181 169 -216 228 -18 32 -38 67
-45 78 -20 33 -44 95 -64 170 l-14 50 0 145 0 145 14 50 c65 233 219 425 421
525 36 17 78 38 93 46 16 8 41 14 55 15 15 0 43 6 62 13 l35 14 116 1 116 1
43 -15z"/>
<path d="M390 5014 c-72 -31 -106 -91 -131 -232 l-9 -53 19 -45 20 -45 35 -14
34 -15 38 16 c67 28 103 89 114 194 17 158 -29 233 -120 194z m59 -88 c13 -15
11 -67 -1 -66 -5 0 -33 0 -63 0 l-55 0 17 28 c32 52 77 69 102 38z m-11 -134
l12 -8 -15 -37 -15 -37 -24 -6 c-14 -3 -32 -4 -42 -2 l-18 3 -8 30 c-4 17 -5
38 -2 48 l5 17 47 0 c26 0 53 -4 60 -8z"/>
<path d="M16670 5017 c-39 -18 -66 -47 -96 -102 l-27 -50 -5 -87 -4 -88 16
-25 c9 -13 29 -31 45 -40 l29 -15 34 12 c18 6 43 19 54 30 20 18 29 33 64 110
l13 27 1 87 1 87 -12 4 c-7 3 -13 11 -13 19 0 13 -50 45 -67 43 -4 0 -19 -6
-33 -12z m60 -113 c15 -44 17 -42 -50 -45 l-55 -3 -3 18 -4 17 27 25 c14 13
37 24 50 24 l23 0 12 -36z m-10 -131 l0 -27 -22 -23 -21 -23 -29 0 -28 0 -17
35 -16 34 13 16 12 15 54 0 54 0 0 -27z"/>
<path d="M17499 4953 c-83 -91 -57 -288 44 -331 l28 -12 41 13 41 12 24 37 25
37 1 94 0 95 -32 41 -33 41 -57 0 -57 0 -25 -27z m111 -49 l14 -25 -1 -84 0
-84 -13 -16 c-7 -8 -23 -15 -36 -15 l-23 0 -11 55 -11 54 7 48 c4 27 11 58 15
71 l9 22 18 0 19 0 13 -26z"/>
<path d="M1232 4874 l-22 -15 0 -25 0 -26 33 4 32 3 -3 -25 c-1 -13 -6 -27
-10 -30 -17 -13 -72 -100 -72 -114 l0 -16 40 0 40 0 12 28 c6 15 17 41 24 59
8 17 14 37 14 45 1 19 37 64 46 56 3 -4 1 -27 -6 -50 -7 -24 -14 -61 -17 -84
l-5 -41 31 -12 30 -13 28 9 28 10 3 32 3 32 -23 -3 -23 -3 -3 18 c-2 9 4 38
14 62 l17 45 14 0 c24 0 63 32 63 51 l0 19 -133 0 -133 0 -22 -16z"/>
<path d="M702 4851 l-14 -8 4 -24 3 -24 160 0 160 0 0 30 0 30 -150 2 c-82 2
-156 -1 -163 -6z"/>
<path d="M16964 4846 c-3 -8 -4 -23 -2 -33 l3 -18 149 -3 148 -3 14 12 c19 15
18 45 -2 53 -9 3 -81 6 -160 6 l-145 0 -5 -14z"/>
<path d="M699 4742 c-57 -40 -20 -52 162 -52 l150 0 6 16 c3 9 2 24 -4 33
l-10 16 -143 0 -143 0 -18 -13z"/>
<path d="M16972 4744 c-8 -6 -12 -19 -10 -30 l3 -19 160 0 160 0 2 15 c2 8 -1
21 -6 29 l-9 14 -143 1 -142 1 -15 -11z"/>
<path d="M4625 3623 c-11 -3 -24 -9 -29 -14 -6 -5 -20 -9 -31 -9 -12 0 -42
-11 -66 -25 -24 -13 -54 -29 -67 -35 -25 -11 -26 -11 -95 -71 -55 -49 -130
-146 -153 -199 -3 -8 -12 -28 -19 -45 -7 -16 -21 -54 -30 -83 l-17 -52 3 -120
4 -119 13 -13 c6 -6 12 -23 12 -36 0 -13 6 -36 14 -50 8 -15 17 -34 21 -42 6
-16 19 -38 50 -85 37 -57 177 -185 203 -185 5 0 15 -7 22 -15 7 -8 20 -15 30
-15 10 0 23 -7 30 -15 7 -8 23 -15 35 -15 12 0 39 -7 58 -15 l36 -15 108 0
108 0 50 16 c87 29 155 57 155 65 0 4 10 9 23 13 52 13 190 164 237 260 34 68
50 89 50 63 0 -89 191 -306 310 -353 8 -3 29 -12 45 -19 17 -7 53 -20 80 -29
l50 -16 106 0 107 0 53 16 c63 18 199 84 199 96 0 4 6 8 13 8 35 0 177 169
211 250 10 25 24 56 31 70 36 72 36 328 0 400 -7 14 -21 45 -31 70 -43 108
-199 270 -294 306 -8 3 -27 12 -42 20 -14 8 -35 14 -46 14 -11 0 -33 7 -48 15
l-29 15 -118 0 -118 0 -36 -15 c-19 -8 -41 -15 -48 -15 -20 0 -99 -39 -170
-84 -82 -53 -224 -242 -225 -299 0 -30 -15 -12 -50 60 -41 82 -38 78 -130 172
l-75 76 -75 36 c-41 20 -97 44 -125 53 l-50 16 -115 -1 c-63 -1 -124 -3 -135
-6z m310 -90 c40 -16 104 -46 150 -71 98 -53 212 -226 237 -362 l10 -55 -5
-100 -6 -100 -15 -30 c-9 -17 -16 -35 -16 -42 0 -43 -150 -230 -205 -254 -11
-5 -38 -19 -60 -32 -22 -12 -65 -30 -95 -40 l-55 -18 -130 3 -130 4 -35 13
c-115 45 -201 107 -268 192 -42 55 -82 128 -82 151 0 6 -7 25 -16 43 l-15 33
3 133 4 134 13 35 c71 181 188 298 361 360 83 31 281 32 355 3z m1210 0 c38
-15 101 -44 150 -70 29 -16 153 -148 166 -176 5 -12 13 -29 18 -37 17 -28 39
-95 54 -166 l16 -71 -9 -59 c-18 -120 -45 -213 -68 -236 -7 -7 -12 -18 -12
-25 0 -14 -147 -167 -170 -177 -8 -3 -34 -17 -58 -30 -23 -14 -56 -27 -72 -31
-16 -4 -32 -11 -35 -16 l-6 -9 -147 0 -147 1 -19 14 c-11 8 -27 15 -36 15 -43
0 -168 87 -231 160 -88 103 -129 210 -136 355 l-4 80 19 70 c19 67 35 105 69
170 40 75 228 225 281 225 10 0 27 7 38 14 l21 15 64 4 c101 5 210 -3 254 -20z"/>
<path d="M11880 3615 c-14 -8 -35 -14 -47 -15 -98 -1 -312 -186 -377 -325 -10
-22 -24 -49 -29 -60 -10 -20 -15 -38 -38 -162 l-12 -63 12 -62 c23 -125 28
-143 38 -163 5 -11 18 -38 29 -60 61 -132 284 -325 374 -325 10 0 34 -7 53
-15 l36 -15 108 0 108 0 50 16 c135 44 255 117 320 196 14 18 34 42 43 53 9
11 33 54 54 95 l37 74 6 -19 c14 -43 60 -123 103 -179 l45 -58 79 -59 c44 -32
86 -59 93 -59 7 0 26 -6 42 -14 15 -8 51 -21 78 -30 l50 -16 115 0 115 1 25
14 c14 8 35 14 48 15 12 0 54 17 94 38 l72 37 68 64 c70 66 109 116 142 186
10 22 25 52 33 67 7 14 13 37 13 50 0 12 7 41 15 63 18 51 18 159 0 210 -8 22
-15 50 -15 62 0 65 -93 216 -188 304 l-68 64 -74 36 c-41 20 -97 44 -125 53
l-50 16 -120 0 -120 -1 -25 -14 c-14 -8 -34 -14 -45 -15 -111 -2 -395 -271
-395 -375 0 -22 -20 -28 -26 -8 -3 10 -20 47 -37 82 l-32 65 -60 61 c-102 104
-153 136 -290 184 l-59 21 -121 0 -120 -1 -25 -14z m320 -82 c46 -16 110 -45
145 -66 11 -7 52 -44 92 -83 l71 -71 35 -74 c77 -165 75 -370 -4 -509 -5 -8
-13 -24 -18 -35 -14 -33 -101 -125 -155 -164 -56 -40 -85 -55 -161 -82 l-50
-18 -135 0 -135 0 -19 14 c-11 8 -27 15 -36 15 -24 0 -88 35 -150 83 -135 105
-206 244 -217 425 l-5 83 17 67 c37 140 103 242 213 324 144 108 353 145 512
91z m1210 0 c47 -16 110 -45 145 -66 11 -7 52 -44 90 -82 l70 -71 31 -64 c17
-36 39 -90 48 -121 l16 -56 0 -83 0 -83 -16 -56 c-59 -201 -187 -334 -387
-406 l-48 -17 -124 1 -124 0 -30 16 c-17 8 -37 15 -45 15 -14 0 -76 29 -86 41
-3 3 -22 15 -42 27 -20 13 -60 49 -90 80 l-53 58 -37 76 -37 75 -12 91 -11 91
12 83 12 83 27 55 c134 270 428 403 691 313z"/>
<path d="M8165 3020 c-16 -5 -49 -14 -73 -19 -23 -6 -50 -15 -60 -20 -9 -5
-24 -12 -32 -16 -16 -6 -36 -18 -85 -50 -39 -25 -145 -131 -170 -170 -32 -49
-44 -69 -50 -85 -4 -8 -13 -27 -21 -42 -8 -14 -14 -34 -14 -45 0 -10 -7 -36
-15 -58 l-14 -40 0 -90 0 -90 14 -40 c8 -22 15 -48 15 -58 0 -17 14 -49 41
-97 5 -8 13 -25 19 -38 13 -31 24 -43 110 -131 l75 -77 65 -33 c36 -18 90 -41
120 -52 l54 -19 133 0 133 0 42 16 c110 41 177 75 186 97 2 4 9 7 15 7 10 0
109 98 145 143 26 34 63 113 82 178 l20 68 19 6 c10 3 31 16 46 29 l27 24 6
47 5 48 -18 33 c-10 19 -22 34 -26 34 -4 0 -21 11 -37 25 l-31 26 -6 32 c-7
33 -30 91 -46 117 -5 8 -13 25 -19 37 -24 55 -172 201 -230 226 -8 4 -22 11
-30 16 -32 19 -68 32 -140 51 l-75 20 -75 -1 c-41 -1 -88 -5 -105 -9z m258
-86 c116 -36 248 -119 292 -186 70 -105 85 -129 91 -152 3 -14 10 -29 15 -32
5 -3 9 -20 9 -39 l0 -34 -19 -6 c-25 -7 -61 -68 -61 -101 0 -30 40 -95 70
-115 l22 -15 -21 -46 c-11 -26 -21 -49 -21 -52 0 -63 -238 -296 -303 -296 -6
0 -25 -7 -41 -15 l-29 -15 -101 -6 c-152 -8 -245 11 -334 68 -24 15 -46 28
-50 28 -22 0 -172 177 -172 203 0 9 -4 18 -9 21 -4 3 -18 36 -30 74 l-22 68 3
115 4 114 13 35 c8 19 28 64 45 100 l31 65 70 70 70 70 60 30 c33 16 80 37
105 46 l45 16 108 2 108 1 52 -16z"/>
<path d="M9620 3023 c-14 -2 -29 -9 -34 -14 -6 -5 -21 -9 -34 -9 -13 0 -36 -6
-50 -13 -15 -8 -45 -22 -67 -33 -137 -64 -263 -215 -317 -379 l-20 -60 -1
-125 0 -125 22 -72 c12 -40 27 -75 32 -78 5 -4 9 -13 9 -20 0 -75 269 -315
354 -315 7 0 27 -7 44 -16 l31 -15 148 3 148 4 35 14 c189 75 312 182 384 335
10 22 24 49 29 60 6 11 14 38 18 60 4 22 12 65 18 95 l11 55 -11 60 c-5 33
-13 80 -17 105 -5 25 -13 54 -19 65 -5 11 -18 38 -29 60 -36 78 -179 244 -211
245 -7 0 -13 3 -13 8 0 4 -21 18 -47 31 -27 13 -60 29 -75 37 -14 8 -39 14
-55 14 -16 0 -35 6 -41 12 l-13 13 -102 1 c-56 1 -113 0 -127 -3z m268 -92
c63 -22 116 -45 147 -64 34 -20 164 -154 175 -179 5 -13 14 -31 20 -40 5 -10
15 -26 20 -35 13 -22 14 -27 31 -88 l14 -50 0 -90 0 -90 -14 -50 c-44 -159
-163 -307 -296 -369 -22 -10 -55 -25 -74 -34 l-34 -17 -151 0 -151 0 -25 18
c-13 9 -34 17 -46 17 -12 0 -27 7 -34 15 -7 8 -18 15 -24 15 -21 0 -123 89
-163 142 -132 175 -164 379 -87 555 8 17 14 34 14 38 0 4 14 27 30 52 17 24
30 47 30 50 0 10 116 120 143 134 57 30 114 56 157 71 l45 16 108 1 108 1 57
-19z"/>
<path d="M5362 1802 c-7 -2 -12 -17 -12 -33 l0 -30 33 -15 c17 -8 39 -18 47
-23 8 -4 24 -13 35 -19 11 -6 81 -41 155 -78 74 -36 142 -70 150 -75 8 -5 22
-12 30 -15 8 -3 22 -10 30 -15 8 -5 22 -12 30 -15 15 -6 27 -11 143 -63 37
-17 71 -31 76 -31 5 0 22 -6 38 -14 15 -8 46 -22 68 -31 22 -10 53 -24 68 -31
16 -8 36 -14 45 -14 9 0 26 -7 36 -15 11 -8 29 -15 40 -15 12 0 30 -7 40 -15
11 -8 31 -15 45 -15 14 0 35 -7 45 -15 11 -8 27 -15 37 -15 9 0 30 -7 45 -15
16 -8 38 -15 49 -15 11 0 29 -7 39 -15 11 -8 31 -15 45 -15 14 -1 37 -7 51
-15 14 -8 35 -14 46 -15 12 0 35 -7 50 -15 16 -8 40 -15 54 -15 14 -1 36 -7
50 -15 14 -8 39 -15 55 -15 17 0 41 -7 55 -15 14 -8 39 -14 56 -15 18 0 45 -7
60 -15 16 -8 43 -15 60 -15 17 0 48 -7 67 -15 20 -8 49 -15 64 -15 15 0 46 -7
68 -15 22 -8 56 -14 75 -15 19 0 53 -7 75 -15 22 -8 60 -14 85 -15 25 0 63 -7
85 -15 22 -8 65 -14 95 -15 30 0 77 -7 104 -15 27 -8 79 -15 115 -15 36 0 82
-5 101 -10 19 -6 109 -15 200 -21 91 -5 215 -14 275 -19 143 -12 518 -11 670
1 66 5 192 14 280 19 88 5 178 14 200 20 22 5 67 10 100 10 34 0 87 7 118 15
32 8 77 15 101 15 24 0 65 7 92 15 27 8 68 15 92 15 23 0 59 7 79 15 19 8 53
15 75 15 21 0 55 7 75 15 19 8 48 15 63 15 15 0 50 6 76 14 62 18 137 36 194
47 24 5 49 14 54 19 6 6 23 10 38 10 15 0 45 6 65 13 62 23 136 45 170 52 18
4 35 11 38 16 4 5 19 9 34 9 15 0 36 7 47 15 10 8 31 15 45 15 14 0 34 7 45
15 10 8 31 15 45 15 14 0 34 7 45 15 10 8 28 15 40 15 11 0 29 7 40 15 10 8
28 15 40 15 11 0 29 7 40 15 10 8 27 15 37 15 11 0 31 6 45 14 15 8 83 38 152
66 122 51 280 122 310 140 44 27 121 60 139 60 l19 0 7 -30 7 -30 23 0 24 0
15 22 c8 11 52 62 98 111 46 50 86 98 90 108 l7 18 -14 11 -14 12 -48 -15
c-26 -9 -88 -18 -136 -22 -131 -9 -156 -26 -121 -80 20 -31 16 -36 -48 -67
-79 -37 -116 -54 -298 -135 -19 -8 -51 -22 -70 -30 -19 -8 -48 -21 -63 -29
-16 -8 -35 -14 -42 -14 -7 0 -26 -6 -42 -14 -15 -8 -48 -22 -73 -31 -25 -9
-58 -23 -73 -31 -16 -8 -36 -14 -46 -14 -9 0 -26 -7 -37 -15 -10 -8 -31 -15
-45 -15 -14 0 -34 -7 -45 -15 -10 -8 -27 -15 -37 -15 -11 0 -33 -6 -50 -13
-42 -18 -123 -43 -164 -52 -18 -4 -35 -11 -38 -16 -4 -5 -18 -9 -33 -9 -15 0
-40 -7 -56 -15 -15 -8 -40 -15 -55 -15 -14 0 -39 -7 -55 -15 -15 -8 -38 -15
-50 -15 -11 0 -41 -6 -66 -14 -70 -22 -130 -37 -195 -47 -32 -5 -64 -14 -69
-19 -6 -6 -29 -10 -53 -10 -23 0 -60 -6 -80 -14 -21 -8 -66 -17 -101 -20 -35
-3 -71 -10 -82 -16 -10 -5 -41 -10 -67 -10 -27 0 -75 -7 -106 -15 -32 -8 -80
-15 -107 -15 -26 0 -84 -7 -127 -15 -43 -8 -109 -15 -148 -15 -38 0 -124 -7
-190 -15 l-120 -15 -385 0 -385 0 -60 10 c-33 5 -116 13 -185 16 -69 3 -157
12 -197 20 -40 8 -95 14 -122 14 -28 0 -76 7 -108 15 -31 8 -78 15 -103 15
-25 0 -63 7 -85 15 -22 8 -59 14 -81 15 -23 0 -61 7 -84 15 -23 8 -58 15 -77
15 -19 0 -44 5 -55 11 -11 6 -44 15 -72 20 -85 14 -159 31 -199 45 -20 8 -50
14 -65 14 -15 0 -32 4 -38 10 -5 5 -30 14 -54 19 -25 5 -58 14 -75 19 -85 29
-132 42 -150 42 -11 1 -29 7 -39 15 -11 8 -30 15 -42 15 -12 0 -35 6 -51 14
-30 15 -80 33 -128 46 -36 10 -89 28 -130 46 -16 7 -50 20 -75 29 -25 10 -58
23 -75 30 -16 7 -50 21 -75 30 -25 10 -74 31 -110 47 -36 17 -78 36 -95 43
-78 34 -111 49 -125 57 -8 4 -22 11 -30 14 -15 7 -201 98 -232 115 -10 5 -26
14 -35 19 -10 6 -28 14 -40 19 -11 6 -24 15 -28 20 -3 6 -14 11 -24 11 -10 0
-24 6 -30 14 -13 15 -49 25 -69 18z m7128 -110 c0 -10 -69 -77 -73 -71 -42 52
-44 67 -9 72 50 7 82 7 82 -1z"/>
<path d="M9180 488 c-13 -40 -29 -87 -36 -105 -8 -17 -14 -38 -14 -46 0 -8 -7
-28 -15 -43 -8 -16 -15 -36 -15 -45 0 -9 -7 -30 -15 -45 -18 -36 -19 -68 -2
-83 l14 -11 20 23 c11 12 24 33 27 47 12 44 69 224 77 245 18 40 38 119 33
127 -3 4 -16 8 -28 8 l-24 0 -22 -72z"/>
<path d="M8565 517 c-58 -34 -77 -65 -52 -85 l13 -11 32 19 c40 24 58 25 66 4
11 -28 -3 -52 -35 -63 l-30 -10 3 -23 3 -22 28 -7 c41 -11 57 -28 57 -59 l0
-27 -24 -12 -24 -13 -25 17 c-14 9 -36 15 -49 13 l-23 -3 0 -35 0 -35 63 -3
63 -3 33 21 c19 11 41 36 51 55 l16 36 -7 22 c-3 12 -18 34 -31 49 l-26 27 17
16 16 16 0 37 c0 70 -75 113 -135 79z"/>
<path d="M9333 514 c-35 -15 -53 -40 -53 -73 l0 -21 13 0 c8 0 22 9 32 20 35
38 85 20 85 -31 0 -46 -15 -71 -84 -142 -96 -99 -91 -107 59 -107 l94 0 15 16
16 15 0 35 0 35 -16 6 -17 6 -11 -15 c-11 -15 -40 -22 -74 -19 l-14 1 46 51
c76 85 90 127 59 181 -30 51 -91 68 -150 42z"/>
<path d="M8805 423 c-39 -21 -55 -38 -55 -58 l0 -17 23 5 c12 2 30 8 40 12
l17 7 0 -16 c0 -8 -20 -49 -45 -89 -50 -82 -52 -92 -29 -101 42 -16 60 5 108
134 l24 65 16 3 16 3 0 -23 c0 -13 -5 -29 -11 -35 -5 -5 -13 -35 -16 -66 l-6
-57 13 -15 12 -15 34 0 33 0 21 30 21 30 -13 4 c-7 2 -21 7 -30 10 l-18 5 1
28 c1 15 4 42 8 58 l6 30 35 11 c39 13 56 34 47 58 l-6 16 -108 0 -108 -1 -30
-16z"/>
</g>
</svg>
