<svg width="256" height="257" viewBox="0 0 256 257" fill="none" xmlns="http://www.w3.org/2000/svg">
<g clip-path="url(#clip0_1_2)">
<path d="M256 0.5H0V256.5H256V0.5Z" fill="white"/>
<path d="M23.7241 16.5H16V24.2241H23.7241V16.5Z" fill="black"/>
<path d="M31.4483 16.5H23.7241V24.2241H31.4483V16.5Z" fill="black"/>
<path d="M39.1724 16.5H31.4483V24.2241H39.1724V16.5Z" fill="black"/>
<path d="M46.8966 16.5H39.1724V24.2241H46.8966V16.5Z" fill="black"/>
<path d="M54.6207 16.5H46.8966V24.2241H54.6207V16.5Z" fill="black"/>
<path d="M62.3448 16.5H54.6207V24.2241H62.3448V16.5Z" fill="black"/>
<path d="M70.069 16.5H62.3448V24.2241H70.069V16.5Z" fill="black"/>
<path d="M85.5172 16.5H77.7931V24.2241H85.5172V16.5Z" fill="black"/>
<path d="M100.966 16.5H93.2414V24.2241H100.966V16.5Z" fill="black"/>
<path d="M108.69 16.5H100.966V24.2241H108.69V16.5Z" fill="black"/>
<path d="M116.414 16.5H108.69V24.2241H116.414V16.5Z" fill="black"/>
<path d="M124.138 16.5H116.414V24.2241H124.138V16.5Z" fill="black"/>
<path d="M162.759 16.5H155.034V24.2241H162.759V16.5Z" fill="black"/>
<path d="M193.655 16.5H185.931V24.2241H193.655V16.5Z" fill="black"/>
<path d="M201.379 16.5H193.655V24.2241H201.379V16.5Z" fill="black"/>
<path d="M209.103 16.5H201.379V24.2241H209.103V16.5Z" fill="black"/>
<path d="M216.828 16.5H209.103V24.2241H216.828V16.5Z" fill="black"/>
<path d="M224.552 16.5H216.828V24.2241H224.552V16.5Z" fill="black"/>
<path d="M232.276 16.5H224.552V24.2241H232.276V16.5Z" fill="black"/>
<path d="M240 16.5H232.276V24.2241H240V16.5Z" fill="black"/>
<path d="M23.7241 24.2241H16V31.9483H23.7241V24.2241Z" fill="black"/>
<path d="M70.069 24.2241H62.3448V31.9483H70.069V24.2241Z" fill="black"/>
<path d="M108.69 24.2241H100.966V31.9483H108.69V24.2241Z" fill="black"/>
<path d="M124.138 24.2241H116.414V31.9483H124.138V24.2241Z" fill="black"/>
<path d="M131.862 24.2241H124.138V31.9483H131.862V24.2241Z" fill="black"/>
<path d="M178.207 24.2241H170.483V31.9483H178.207V24.2241Z" fill="black"/>
<path d="M193.655 24.2241H185.931V31.9483H193.655V24.2241Z" fill="black"/>
<path d="M240 24.2241H232.276V31.9483H240V24.2241Z" fill="black"/>
<path d="M23.7241 31.9483H16V39.6724H23.7241V31.9483Z" fill="black"/>
<path d="M39.1724 31.9483H31.4483V39.6724H39.1724V31.9483Z" fill="black"/>
<path d="M46.8966 31.9483H39.1724V39.6724H46.8966V31.9483Z" fill="black"/>
<path d="M54.6207 31.9483H46.8966V39.6724H54.6207V31.9483Z" fill="black"/>
<path d="M70.069 31.9483H62.3448V39.6724H70.069V31.9483Z" fill="black"/>
<path d="M85.5172 31.9483H77.7931V39.6724H85.5172V31.9483Z" fill="black"/>
<path d="M108.69 31.9483H100.966V39.6724H108.69V31.9483Z" fill="black"/>
<path d="M116.414 31.9483H108.69V39.6724H116.414V31.9483Z" fill="black"/>
<path d="M131.862 31.9483H124.138V39.6724H131.862V31.9483Z" fill="black"/>
<path d="M147.31 31.9483H139.586V39.6724H147.31V31.9483Z" fill="black"/>
<path d="M170.483 31.9483H162.759V39.6724H170.483V31.9483Z" fill="black"/>
<path d="M193.655 31.9483H185.931V39.6724H193.655V31.9483Z" fill="black"/>
<path d="M209.103 31.9483H201.379V39.6724H209.103V31.9483Z" fill="black"/>
<path d="M216.828 31.9483H209.103V39.6724H216.828V31.9483Z" fill="black"/>
<path d="M224.552 31.9483H216.828V39.6724H224.552V31.9483Z" fill="black"/>
<path d="M240 31.9483H232.276V39.6724H240V31.9483Z" fill="black"/>
<path d="M23.7241 39.6724H16V47.3966H23.7241V39.6724Z" fill="black"/>
<path d="M39.1724 39.6724H31.4483V47.3966H39.1724V39.6724Z" fill="black"/>
<path d="M46.8966 39.6724H39.1724V47.3966H46.8966V39.6724Z" fill="black"/>
<path d="M54.6207 39.6724H46.8966V47.3966H54.6207V39.6724Z" fill="black"/>
<path d="M70.069 39.6724H62.3448V47.3966H70.069V39.6724Z" fill="black"/>
<path d="M85.5172 39.6724H77.7931V47.3966H85.5172V39.6724Z" fill="black"/>
<path d="M131.862 39.6724H124.138V47.3966H131.862V39.6724Z" fill="black"/>
<path d="M139.586 39.6724H131.862V47.3966H139.586V39.6724Z" fill="black"/>
<path d="M155.034 39.6724H147.31V47.3966H155.034V39.6724Z" fill="black"/>
<path d="M170.483 39.6724H162.759V47.3966H170.483V39.6724Z" fill="black"/>
<path d="M193.655 39.6724H185.931V47.3966H193.655V39.6724Z" fill="black"/>
<path d="M209.103 39.6724H201.379V47.3966H209.103V39.6724Z" fill="black"/>
<path d="M216.828 39.6724H209.103V47.3966H216.828V39.6724Z" fill="black"/>
<path d="M224.552 39.6724H216.828V47.3966H224.552V39.6724Z" fill="black"/>
<path d="M240 39.6724H232.276V47.3966H240V39.6724Z" fill="black"/>
<path d="M23.7241 47.3966H16V55.1207H23.7241V47.3966Z" fill="black"/>
<path d="M39.1724 47.3966H31.4483V55.1207H39.1724V47.3966Z" fill="black"/>
<path d="M46.8966 47.3966H39.1724V55.1207H46.8966V47.3966Z" fill="black"/>
<path d="M54.6207 47.3966H46.8966V55.1207H54.6207V47.3966Z" fill="black"/>
<path d="M70.069 47.3966H62.3448V55.1207H70.069V47.3966Z" fill="black"/>
<path d="M116.414 47.3966H108.69V55.1207H116.414V47.3966Z" fill="black"/>
<path d="M124.138 47.3966H116.414V55.1207H124.138V47.3966Z" fill="black"/>
<path d="M131.862 47.3966H124.138V55.1207H131.862V47.3966Z" fill="black"/>
<path d="M155.034 47.3966H147.31V55.1207H155.034V47.3966Z" fill="black"/>
<path d="M193.655 47.3966H185.931V55.1207H193.655V47.3966Z" fill="black"/>
<path d="M209.103 47.3966H201.379V55.1207H209.103V47.3966Z" fill="black"/>
<path d="M216.828 47.3966H209.103V55.1207H216.828V47.3966Z" fill="black"/>
<path d="M224.552 47.3966H216.828V55.1207H224.552V47.3966Z" fill="black"/>
<path d="M240 47.3966H232.276V55.1207H240V47.3966Z" fill="black"/>
<path d="M23.7241 55.1207H16V62.8448H23.7241V55.1207Z" fill="black"/>
<path d="M70.069 55.1207H62.3448V62.8448H70.069V55.1207Z" fill="black"/>
<path d="M85.5172 55.1207H77.7931V62.8448H85.5172V55.1207Z" fill="black"/>
<path d="M93.2414 55.1207H85.5172V62.8448H93.2414V55.1207Z" fill="black"/>
<path d="M100.966 55.1207H93.2414V62.8448H100.966V55.1207Z" fill="black"/>
<path d="M108.69 55.1207H100.966V62.8448H108.69V55.1207Z" fill="black"/>
<path d="M116.414 55.1207H108.69V62.8448H116.414V55.1207Z" fill="black"/>
<path d="M124.138 55.1207H116.414V62.8448H124.138V55.1207Z" fill="black"/>
<path d="M139.586 55.1207H131.862V62.8448H139.586V55.1207Z" fill="black"/>
<path d="M147.31 55.1207H139.586V62.8448H147.31V55.1207Z" fill="black"/>
<path d="M162.759 55.1207H155.034V62.8448H162.759V55.1207Z" fill="black"/>
<path d="M178.207 55.1207H170.483V62.8448H178.207V55.1207Z" fill="black"/>
<path d="M193.655 55.1207H185.931V62.8448H193.655V55.1207Z" fill="black"/>
<path d="M240 55.1207H232.276V62.8448H240V55.1207Z" fill="black"/>
<path d="M23.7241 62.8448H16V70.569H23.7241V62.8448Z" fill="black"/>
<path d="M31.4483 62.8448H23.7241V70.569H31.4483V62.8448Z" fill="black"/>
<path d="M39.1724 62.8448H31.4483V70.569H39.1724V62.8448Z" fill="black"/>
<path d="M46.8966 62.8448H39.1724V70.569H46.8966V62.8448Z" fill="black"/>
<path d="M54.6207 62.8448H46.8966V70.569H54.6207V62.8448Z" fill="black"/>
<path d="M62.3448 62.8448H54.6207V70.569H62.3448V62.8448Z" fill="black"/>
<path d="M70.069 62.8448H62.3448V70.569H70.069V62.8448Z" fill="black"/>
<path d="M85.5172 62.8448H77.7931V70.569H85.5172V62.8448Z" fill="black"/>
<path d="M100.966 62.8448H93.2414V70.569H100.966V62.8448Z" fill="black"/>
<path d="M116.414 62.8448H108.69V70.569H116.414V62.8448Z" fill="black"/>
<path d="M131.862 62.8448H124.138V70.569H131.862V62.8448Z" fill="black"/>
<path d="M147.31 62.8448H139.586V70.569H147.31V62.8448Z" fill="black"/>
<path d="M162.759 62.8448H155.034V70.569H162.759V62.8448Z" fill="black"/>
<path d="M178.207 62.8448H170.483V70.569H178.207V62.8448Z" fill="black"/>
<path d="M193.655 62.8448H185.931V70.569H193.655V62.8448Z" fill="black"/>
<path d="M201.379 62.8448H193.655V70.569H201.379V62.8448Z" fill="black"/>
<path d="M209.103 62.8448H201.379V70.569H209.103V62.8448Z" fill="black"/>
<path d="M216.828 62.8448H209.103V70.569H216.828V62.8448Z" fill="black"/>
<path d="M224.552 62.8448H216.828V70.569H224.552V62.8448Z" fill="black"/>
<path d="M232.276 62.8448H224.552V70.569H232.276V62.8448Z" fill="black"/>
<path d="M240 62.8448H232.276V70.569H240V62.8448Z" fill="black"/>
<path d="M85.5172 70.569H77.7931V78.2931H85.5172V70.569Z" fill="black"/>
<path d="M108.69 70.569H100.966V78.2931H108.69V70.569Z" fill="black"/>
<path d="M116.414 70.569H108.69V78.2931H116.414V70.569Z" fill="black"/>
<path d="M124.138 70.569H116.414V78.2931H124.138V70.569Z" fill="black"/>
<path d="M139.586 70.569H131.862V78.2931H139.586V70.569Z" fill="black"/>
<path d="M162.759 70.569H155.034V78.2931H162.759V70.569Z" fill="black"/>
<path d="M23.7241 78.2931H16V86.0172H23.7241V78.2931Z" fill="black"/>
<path d="M31.4483 78.2931H23.7241V86.0172H31.4483V78.2931Z" fill="black"/>
<path d="M46.8966 78.2931H39.1724V86.0172H46.8966V78.2931Z" fill="black"/>
<path d="M70.069 78.2931H62.3448V86.0172H70.069V78.2931Z" fill="black"/>
<path d="M77.7931 78.2931H70.069V86.0172H77.7931V78.2931Z" fill="black"/>
<path d="M93.2414 78.2931H85.5172V86.0172H93.2414V78.2931Z" fill="black"/>
<path d="M116.414 78.2931H108.69V86.0172H116.414V78.2931Z" fill="black"/>
<path d="M124.138 78.2931H116.414V86.0172H124.138V78.2931Z" fill="black"/>
<path d="M139.586 78.2931H131.862V86.0172H139.586V78.2931Z" fill="black"/>
<path d="M147.31 78.2931H139.586V86.0172H147.31V78.2931Z" fill="black"/>
<path d="M155.034 78.2931H147.31V86.0172H155.034V78.2931Z" fill="black"/>
<path d="M178.207 78.2931H170.483V86.0172H178.207V78.2931Z" fill="black"/>
<path d="M185.931 78.2931H178.207V86.0172H185.931V78.2931Z" fill="black"/>
<path d="M193.655 78.2931H185.931V86.0172H193.655V78.2931Z" fill="black"/>
<path d="M201.379 78.2931H193.655V86.0172H201.379V78.2931Z" fill="black"/>
<path d="M216.828 78.2931H209.103V86.0172H216.828V78.2931Z" fill="black"/>
<path d="M224.552 78.2931H216.828V86.0172H224.552V78.2931Z" fill="black"/>
<path d="M240 78.2931H232.276V86.0172H240V78.2931Z" fill="black"/>
<path d="M39.1724 86.0172H31.4483V93.7414H39.1724V86.0172Z" fill="black"/>
<path d="M46.8966 86.0172H39.1724V93.7414H46.8966V86.0172Z" fill="black"/>
<path d="M62.3448 86.0172H54.6207V93.7414H62.3448V86.0172Z" fill="black"/>
<path d="M77.7931 86.0172H70.069V93.7414H77.7931V86.0172Z" fill="black"/>
<path d="M85.5172 86.0172H77.7931V93.7414H85.5172V86.0172Z" fill="black"/>
<path d="M108.69 86.0172H100.966V93.7414H108.69V86.0172Z" fill="black"/>
<path d="M116.414 86.0172H108.69V93.7414H116.414V86.0172Z" fill="black"/>
<path d="M124.138 86.0172H116.414V93.7414H124.138V86.0172Z" fill="black"/>
<path d="M139.586 86.0172H131.862V93.7414H139.586V86.0172Z" fill="black"/>
<path d="M155.034 86.0172H147.31V93.7414H155.034V86.0172Z" fill="black"/>
<path d="M162.759 86.0172H155.034V93.7414H162.759V86.0172Z" fill="black"/>
<path d="M170.483 86.0172H162.759V93.7414H170.483V86.0172Z" fill="black"/>
<path d="M193.655 86.0172H185.931V93.7414H193.655V86.0172Z" fill="black"/>
<path d="M209.103 86.0172H201.379V93.7414H209.103V86.0172Z" fill="black"/>
<path d="M240 86.0172H232.276V93.7414H240V86.0172Z" fill="black"/>
<path d="M31.4483 93.7414H23.7241V101.466H31.4483V93.7414Z" fill="black"/>
<path d="M46.8966 93.7414H39.1724V101.466H46.8966V93.7414Z" fill="black"/>
<path d="M62.3448 93.7414H54.6207V101.466H62.3448V93.7414Z" fill="black"/>
<path d="M70.069 93.7414H62.3448V101.466H70.069V93.7414Z" fill="black"/>
<path d="M93.2414 93.7414H85.5172V101.466H93.2414V93.7414Z" fill="black"/>
<path d="M108.69 93.7414H100.966V101.466H108.69V93.7414Z" fill="black"/>
<path d="M116.414 93.7414H108.69V101.466H116.414V93.7414Z" fill="black"/>
<path d="M124.138 93.7414H116.414V101.466H124.138V93.7414Z" fill="black"/>
<path d="M131.862 93.7414H124.138V101.466H131.862V93.7414Z" fill="black"/>
<path d="M147.31 93.7414H139.586V101.466H147.31V93.7414Z" fill="black"/>
<path d="M162.759 93.7414H155.034V101.466H162.759V93.7414Z" fill="black"/>
<path d="M178.207 93.7414H170.483V101.466H178.207V93.7414Z" fill="black"/>
<path d="M216.828 93.7414H209.103V101.466H216.828V93.7414Z" fill="black"/>
<path d="M240 93.7414H232.276V101.466H240V93.7414Z" fill="black"/>
<path d="M31.4483 101.466H23.7241V109.19H31.4483V101.466Z" fill="black"/>
<path d="M54.6207 101.466H46.8966V109.19H54.6207V101.466Z" fill="black"/>
<path d="M62.3448 101.466H54.6207V109.19H62.3448V101.466Z" fill="black"/>
<path d="M85.5172 101.466H77.7931V109.19H85.5172V101.466Z" fill="black"/>
<path d="M93.2414 101.466H85.5172V109.19H93.2414V101.466Z" fill="black"/>
<path d="M139.586 101.466H131.862V109.19H139.586V101.466Z" fill="black"/>
<path d="M147.31 101.466H139.586V109.19H147.31V101.466Z" fill="black"/>
<path d="M155.034 101.466H147.31V109.19H155.034V101.466Z" fill="black"/>
<path d="M162.759 101.466H155.034V109.19H162.759V101.466Z" fill="black"/>
<path d="M185.931 101.466H178.207V109.19H185.931V101.466Z" fill="black"/>
<path d="M201.379 101.466H193.655V109.19H201.379V101.466Z" fill="black"/>
<path d="M216.828 101.466H209.103V109.19H216.828V101.466Z" fill="black"/>
<path d="M224.552 101.466H216.828V109.19H224.552V101.466Z" fill="black"/>
<path d="M232.276 101.466H224.552V109.19H232.276V101.466Z" fill="black"/>
<path d="M240 101.466H232.276V109.19H240V101.466Z" fill="black"/>
<path d="M23.7241 109.19H16V116.914H23.7241V109.19Z" fill="black"/>
<path d="M31.4483 109.19H23.7241V116.914H31.4483V109.19Z" fill="black"/>
<path d="M39.1724 109.19H31.4483V116.914H39.1724V109.19Z" fill="black"/>
<path d="M54.6207 109.19H46.8966V116.914H54.6207V109.19Z" fill="black"/>
<path d="M70.069 109.19H62.3448V116.914H70.069V109.19Z" fill="black"/>
<path d="M124.138 109.19H116.414V116.914H124.138V109.19Z" fill="black"/>
<path d="M131.862 109.19H124.138V116.914H131.862V109.19Z" fill="black"/>
<path d="M139.586 109.19H131.862V116.914H139.586V109.19Z" fill="black"/>
<path d="M185.931 109.19H178.207V116.914H185.931V109.19Z" fill="black"/>
<path d="M201.379 109.19H193.655V116.914H201.379V109.19Z" fill="black"/>
<path d="M216.828 109.19H209.103V116.914H216.828V109.19Z" fill="black"/>
<path d="M224.552 109.19H216.828V116.914H224.552V109.19Z" fill="black"/>
<path d="M23.7241 116.914H16V124.638H23.7241V116.914Z" fill="black"/>
<path d="M31.4483 116.914H23.7241V124.638H31.4483V116.914Z" fill="black"/>
<path d="M62.3448 116.914H54.6207V124.638H62.3448V116.914Z" fill="black"/>
<path d="M85.5172 116.914H77.7931V124.638H85.5172V116.914Z" fill="black"/>
<path d="M93.2414 116.914H85.5172V124.638H93.2414V116.914Z" fill="black"/>
<path d="M100.966 116.914H93.2414V124.638H100.966V116.914Z" fill="black"/>
<path d="M131.862 116.914H124.138V124.638H131.862V116.914Z" fill="black"/>
<path d="M162.759 116.914H155.034V124.638H162.759V116.914Z" fill="black"/>
<path d="M170.483 116.914H162.759V124.638H170.483V116.914Z" fill="black"/>
<path d="M178.207 116.914H170.483V124.638H178.207V116.914Z" fill="black"/>
<path d="M201.379 116.914H193.655V124.638H201.379V116.914Z" fill="black"/>
<path d="M216.828 116.914H209.103V124.638H216.828V116.914Z" fill="black"/>
<path d="M232.276 116.914H224.552V124.638H232.276V116.914Z" fill="black"/>
<path d="M240 116.914H232.276V124.638H240V116.914Z" fill="black"/>
<path d="M23.7241 124.638H16V132.362H23.7241V124.638Z" fill="black"/>
<path d="M46.8966 124.638H39.1724V132.362H46.8966V124.638Z" fill="black"/>
<path d="M54.6207 124.638H46.8966V132.362H54.6207V124.638Z" fill="black"/>
<path d="M70.069 124.638H62.3448V132.362H70.069V124.638Z" fill="black"/>
<path d="M93.2414 124.638H85.5172V132.362H93.2414V124.638Z" fill="black"/>
<path d="M116.414 124.638H108.69V132.362H116.414V124.638Z" fill="black"/>
<path d="M124.138 124.638H116.414V132.362H124.138V124.638Z" fill="black"/>
<path d="M139.586 124.638H131.862V132.362H139.586V124.638Z" fill="black"/>
<path d="M147.31 124.638H139.586V132.362H147.31V124.638Z" fill="black"/>
<path d="M155.034 124.638H147.31V132.362H155.034V124.638Z" fill="black"/>
<path d="M162.759 124.638H155.034V132.362H162.759V124.638Z" fill="black"/>
<path d="M170.483 124.638H162.759V132.362H170.483V124.638Z" fill="black"/>
<path d="M178.207 124.638H170.483V132.362H178.207V124.638Z" fill="black"/>
<path d="M193.655 124.638H185.931V132.362H193.655V124.638Z" fill="black"/>
<path d="M201.379 124.638H193.655V132.362H201.379V124.638Z" fill="black"/>
<path d="M240 124.638H232.276V132.362H240V124.638Z" fill="black"/>
<path d="M23.7241 132.362H16V140.086H23.7241V132.362Z" fill="black"/>
<path d="M46.8966 132.362H39.1724V140.086H46.8966V132.362Z" fill="black"/>
<path d="M62.3448 132.362H54.6207V140.086H62.3448V132.362Z" fill="black"/>
<path d="M77.7931 132.362H70.069V140.086H77.7931V132.362Z" fill="black"/>
<path d="M85.5172 132.362H77.7931V140.086H85.5172V132.362Z" fill="black"/>
<path d="M93.2414 132.362H85.5172V140.086H93.2414V132.362Z" fill="black"/>
<path d="M116.414 132.362H108.69V140.086H116.414V132.362Z" fill="black"/>
<path d="M131.862 132.362H124.138V140.086H131.862V132.362Z" fill="black"/>
<path d="M147.31 132.362H139.586V140.086H147.31V132.362Z" fill="black"/>
<path d="M162.759 132.362H155.034V140.086H162.759V132.362Z" fill="black"/>
<path d="M185.931 132.362H178.207V140.086H185.931V132.362Z" fill="black"/>
<path d="M193.655 132.362H185.931V140.086H193.655V132.362Z" fill="black"/>
<path d="M201.379 132.362H193.655V140.086H201.379V132.362Z" fill="black"/>
<path d="M232.276 132.362H224.552V140.086H232.276V132.362Z" fill="black"/>
<path d="M31.4483 140.086H23.7241V147.81H31.4483V140.086Z" fill="black"/>
<path d="M39.1724 140.086H31.4483V147.81H39.1724V140.086Z" fill="black"/>
<path d="M54.6207 140.086H46.8966V147.81H54.6207V140.086Z" fill="black"/>
<path d="M62.3448 140.086H54.6207V147.81H62.3448V140.086Z" fill="black"/>
<path d="M70.069 140.086H62.3448V147.81H70.069V140.086Z" fill="black"/>
<path d="M77.7931 140.086H70.069V147.81H77.7931V140.086Z" fill="black"/>
<path d="M100.966 140.086H93.2414V147.81H100.966V140.086Z" fill="black"/>
<path d="M108.69 140.086H100.966V147.81H108.69V140.086Z" fill="black"/>
<path d="M124.138 140.086H116.414V147.81H124.138V140.086Z" fill="black"/>
<path d="M131.862 140.086H124.138V147.81H131.862V140.086Z" fill="black"/>
<path d="M139.586 140.086H131.862V147.81H139.586V140.086Z" fill="black"/>
<path d="M147.31 140.086H139.586V147.81H147.31V140.086Z" fill="black"/>
<path d="M155.034 140.086H147.31V147.81H155.034V140.086Z" fill="black"/>
<path d="M162.759 140.086H155.034V147.81H162.759V140.086Z" fill="black"/>
<path d="M178.207 140.086H170.483V147.81H178.207V140.086Z" fill="black"/>
<path d="M185.931 140.086H178.207V147.81H185.931V140.086Z" fill="black"/>
<path d="M209.103 140.086H201.379V147.81H209.103V140.086Z" fill="black"/>
<path d="M46.8966 147.81H39.1724V155.534H46.8966V147.81Z" fill="black"/>
<path d="M62.3448 147.81H54.6207V155.534H62.3448V147.81Z" fill="black"/>
<path d="M77.7931 147.81H70.069V155.534H77.7931V147.81Z" fill="black"/>
<path d="M85.5172 147.81H77.7931V155.534H85.5172V147.81Z" fill="black"/>
<path d="M93.2414 147.81H85.5172V155.534H93.2414V147.81Z" fill="black"/>
<path d="M100.966 147.81H93.2414V155.534H100.966V147.81Z" fill="black"/>
<path d="M116.414 147.81H108.69V155.534H116.414V147.81Z" fill="black"/>
<path d="M131.862 147.81H124.138V155.534H131.862V147.81Z" fill="black"/>
<path d="M147.31 147.81H139.586V155.534H147.31V147.81Z" fill="black"/>
<path d="M155.034 147.81H147.31V155.534H155.034V147.81Z" fill="black"/>
<path d="M162.759 147.81H155.034V155.534H162.759V147.81Z" fill="black"/>
<path d="M193.655 147.81H185.931V155.534H193.655V147.81Z" fill="black"/>
<path d="M224.552 147.81H216.828V155.534H224.552V147.81Z" fill="black"/>
<path d="M232.276 147.81H224.552V155.534H232.276V147.81Z" fill="black"/>
<path d="M240 147.81H232.276V155.534H240V147.81Z" fill="black"/>
<path d="M23.7241 155.534H16V163.259H23.7241V155.534Z" fill="black"/>
<path d="M46.8966 155.534H39.1724V163.259H46.8966V155.534Z" fill="black"/>
<path d="M62.3448 155.534H54.6207V163.259H62.3448V155.534Z" fill="black"/>
<path d="M70.069 155.534H62.3448V163.259H70.069V155.534Z" fill="black"/>
<path d="M85.5172 155.534H77.7931V163.259H85.5172V155.534Z" fill="black"/>
<path d="M93.2414 155.534H85.5172V163.259H93.2414V155.534Z" fill="black"/>
<path d="M108.69 155.534H100.966V163.259H108.69V155.534Z" fill="black"/>
<path d="M131.862 155.534H124.138V163.259H131.862V155.534Z" fill="black"/>
<path d="M178.207 155.534H170.483V163.259H178.207V155.534Z" fill="black"/>
<path d="M185.931 155.534H178.207V163.259H185.931V155.534Z" fill="black"/>
<path d="M201.379 155.534H193.655V163.259H201.379V155.534Z" fill="black"/>
<path d="M209.103 155.534H201.379V163.259H209.103V155.534Z" fill="black"/>
<path d="M216.828 155.534H209.103V163.259H216.828V155.534Z" fill="black"/>
<path d="M224.552 155.534H216.828V163.259H224.552V155.534Z" fill="black"/>
<path d="M232.276 155.534H224.552V163.259H232.276V155.534Z" fill="black"/>
<path d="M240 155.534H232.276V163.259H240V155.534Z" fill="black"/>
<path d="M23.7241 163.259H16V170.983H23.7241V163.259Z" fill="black"/>
<path d="M39.1724 163.259H31.4483V170.983H39.1724V163.259Z" fill="black"/>
<path d="M54.6207 163.259H46.8966V170.983H54.6207V163.259Z" fill="black"/>
<path d="M62.3448 163.259H54.6207V170.983H62.3448V163.259Z" fill="black"/>
<path d="M93.2414 163.259H85.5172V170.983H93.2414V163.259Z" fill="black"/>
<path d="M108.69 163.259H100.966V170.983H108.69V163.259Z" fill="black"/>
<path d="M124.138 163.259H116.414V170.983H124.138V163.259Z" fill="black"/>
<path d="M131.862 163.259H124.138V170.983H131.862V163.259Z" fill="black"/>
<path d="M147.31 163.259H139.586V170.983H147.31V163.259Z" fill="black"/>
<path d="M170.483 163.259H162.759V170.983H170.483V163.259Z" fill="black"/>
<path d="M178.207 163.259H170.483V170.983H178.207V163.259Z" fill="black"/>
<path d="M193.655 163.259H185.931V170.983H193.655V163.259Z" fill="black"/>
<path d="M23.7241 170.983H16V178.707H23.7241V170.983Z" fill="black"/>
<path d="M39.1724 170.983H31.4483V178.707H39.1724V170.983Z" fill="black"/>
<path d="M46.8966 170.983H39.1724V178.707H46.8966V170.983Z" fill="black"/>
<path d="M70.069 170.983H62.3448V178.707H70.069V170.983Z" fill="black"/>
<path d="M77.7931 170.983H70.069V178.707H77.7931V170.983Z" fill="black"/>
<path d="M93.2414 170.983H85.5172V178.707H93.2414V170.983Z" fill="black"/>
<path d="M100.966 170.983H93.2414V178.707H100.966V170.983Z" fill="black"/>
<path d="M108.69 170.983H100.966V178.707H108.69V170.983Z" fill="black"/>
<path d="M116.414 170.983H108.69V178.707H116.414V170.983Z" fill="black"/>
<path d="M131.862 170.983H124.138V178.707H131.862V170.983Z" fill="black"/>
<path d="M147.31 170.983H139.586V178.707H147.31V170.983Z" fill="black"/>
<path d="M155.034 170.983H147.31V178.707H155.034V170.983Z" fill="black"/>
<path d="M162.759 170.983H155.034V178.707H162.759V170.983Z" fill="black"/>
<path d="M178.207 170.983H170.483V178.707H178.207V170.983Z" fill="black"/>
<path d="M185.931 170.983H178.207V178.707H185.931V170.983Z" fill="black"/>
<path d="M193.655 170.983H185.931V178.707H193.655V170.983Z" fill="black"/>
<path d="M201.379 170.983H193.655V178.707H201.379V170.983Z" fill="black"/>
<path d="M209.103 170.983H201.379V178.707H209.103V170.983Z" fill="black"/>
<path d="M224.552 170.983H216.828V178.707H224.552V170.983Z" fill="black"/>
<path d="M232.276 170.983H224.552V178.707H232.276V170.983Z" fill="black"/>
<path d="M240 170.983H232.276V178.707H240V170.983Z" fill="black"/>
<path d="M93.2414 178.707H85.5172V186.431H93.2414V178.707Z" fill="black"/>
<path d="M108.69 178.707H100.966V186.431H108.69V178.707Z" fill="black"/>
<path d="M131.862 178.707H124.138V186.431H131.862V178.707Z" fill="black"/>
<path d="M139.586 178.707H131.862V186.431H139.586V178.707Z" fill="black"/>
<path d="M147.31 178.707H139.586V186.431H147.31V178.707Z" fill="black"/>
<path d="M178.207 178.707H170.483V186.431H178.207V178.707Z" fill="black"/>
<path d="M209.103 178.707H201.379V186.431H209.103V178.707Z" fill="black"/>
<path d="M216.828 178.707H209.103V186.431H216.828V178.707Z" fill="black"/>
<path d="M224.552 178.707H216.828V186.431H224.552V178.707Z" fill="black"/>
<path d="M232.276 178.707H224.552V186.431H232.276V178.707Z" fill="black"/>
<path d="M240 178.707H232.276V186.431H240V178.707Z" fill="black"/>
<path d="M23.7241 186.431H16V194.155H23.7241V186.431Z" fill="black"/>
<path d="M31.4483 186.431H23.7241V194.155H31.4483V186.431Z" fill="black"/>
<path d="M39.1724 186.431H31.4483V194.155H39.1724V186.431Z" fill="black"/>
<path d="M46.8966 186.431H39.1724V194.155H46.8966V186.431Z" fill="black"/>
<path d="M54.6207 186.431H46.8966V194.155H54.6207V186.431Z" fill="black"/>
<path d="M62.3448 186.431H54.6207V194.155H62.3448V186.431Z" fill="black"/>
<path d="M70.069 186.431H62.3448V194.155H70.069V186.431Z" fill="black"/>
<path d="M85.5172 186.431H77.7931V194.155H85.5172V186.431Z" fill="black"/>
<path d="M93.2414 186.431H85.5172V194.155H93.2414V186.431Z" fill="black"/>
<path d="M100.966 186.431H93.2414V194.155H100.966V186.431Z" fill="black"/>
<path d="M108.69 186.431H100.966V194.155H108.69V186.431Z" fill="black"/>
<path d="M124.138 186.431H116.414V194.155H124.138V186.431Z" fill="black"/>
<path d="M139.586 186.431H131.862V194.155H139.586V186.431Z" fill="black"/>
<path d="M170.483 186.431H162.759V194.155H170.483V186.431Z" fill="black"/>
<path d="M178.207 186.431H170.483V194.155H178.207V186.431Z" fill="black"/>
<path d="M193.655 186.431H185.931V194.155H193.655V186.431Z" fill="black"/>
<path d="M209.103 186.431H201.379V194.155H209.103V186.431Z" fill="black"/>
<path d="M232.276 186.431H224.552V194.155H232.276V186.431Z" fill="black"/>
<path d="M23.7241 194.155H16V201.879H23.7241V194.155Z" fill="black"/>
<path d="M70.069 194.155H62.3448V201.879H70.069V194.155Z" fill="black"/>
<path d="M93.2414 194.155H85.5172V201.879H93.2414V194.155Z" fill="black"/>
<path d="M100.966 194.155H93.2414V201.879H100.966V194.155Z" fill="black"/>
<path d="M116.414 194.155H108.69V201.879H116.414V194.155Z" fill="black"/>
<path d="M155.034 194.155H147.31V201.879H155.034V194.155Z" fill="black"/>
<path d="M162.759 194.155H155.034V201.879H162.759V194.155Z" fill="black"/>
<path d="M178.207 194.155H170.483V201.879H178.207V194.155Z" fill="black"/>
<path d="M209.103 194.155H201.379V201.879H209.103V194.155Z" fill="black"/>
<path d="M224.552 194.155H216.828V201.879H224.552V194.155Z" fill="black"/>
<path d="M232.276 194.155H224.552V201.879H232.276V194.155Z" fill="black"/>
<path d="M240 194.155H232.276V201.879H240V194.155Z" fill="black"/>
<path d="M23.7241 201.879H16V209.603H23.7241V201.879Z" fill="black"/>
<path d="M39.1724 201.879H31.4483V209.603H39.1724V201.879Z" fill="black"/>
<path d="M46.8966 201.879H39.1724V209.603H46.8966V201.879Z" fill="black"/>
<path d="M54.6207 201.879H46.8966V209.603H54.6207V201.879Z" fill="black"/>
<path d="M70.069 201.879H62.3448V209.603H70.069V201.879Z" fill="black"/>
<path d="M93.2414 201.879H85.5172V209.603H93.2414V201.879Z" fill="black"/>
<path d="M108.69 201.879H100.966V209.603H108.69V201.879Z" fill="black"/>
<path d="M139.586 201.879H131.862V209.603H139.586V201.879Z" fill="black"/>
<path d="M147.31 201.879H139.586V209.603H147.31V201.879Z" fill="black"/>
<path d="M162.759 201.879H155.034V209.603H162.759V201.879Z" fill="black"/>
<path d="M178.207 201.879H170.483V209.603H178.207V201.879Z" fill="black"/>
<path d="M185.931 201.879H178.207V209.603H185.931V201.879Z" fill="black"/>
<path d="M193.655 201.879H185.931V209.603H193.655V201.879Z" fill="black"/>
<path d="M201.379 201.879H193.655V209.603H201.379V201.879Z" fill="black"/>
<path d="M209.103 201.879H201.379V209.603H209.103V201.879Z" fill="black"/>
<path d="M216.828 201.879H209.103V209.603H216.828V201.879Z" fill="black"/>
<path d="M23.7241 209.603H16V217.328H23.7241V209.603Z" fill="black"/>
<path d="M39.1724 209.603H31.4483V217.328H39.1724V209.603Z" fill="black"/>
<path d="M46.8966 209.603H39.1724V217.328H46.8966V209.603Z" fill="black"/>
<path d="M54.6207 209.603H46.8966V217.328H54.6207V209.603Z" fill="black"/>
<path d="M70.069 209.603H62.3448V217.328H70.069V209.603Z" fill="black"/>
<path d="M85.5172 209.603H77.7931V217.328H85.5172V209.603Z" fill="black"/>
<path d="M116.414 209.603H108.69V217.328H116.414V209.603Z" fill="black"/>
<path d="M147.31 209.603H139.586V217.328H147.31V209.603Z" fill="black"/>
<path d="M155.034 209.603H147.31V217.328H155.034V209.603Z" fill="black"/>
<path d="M178.207 209.603H170.483V217.328H178.207V209.603Z" fill="black"/>
<path d="M185.931 209.603H178.207V217.328H185.931V209.603Z" fill="black"/>
<path d="M193.655 209.603H185.931V217.328H193.655V209.603Z" fill="black"/>
<path d="M201.379 209.603H193.655V217.328H201.379V209.603Z" fill="black"/>
<path d="M216.828 209.603H209.103V217.328H216.828V209.603Z" fill="black"/>
<path d="M232.276 209.603H224.552V217.328H232.276V209.603Z" fill="black"/>
<path d="M240 209.603H232.276V217.328H240V209.603Z" fill="black"/>
<path d="M23.7241 217.328H16V225.052H23.7241V217.328Z" fill="black"/>
<path d="M39.1724 217.328H31.4483V225.052H39.1724V217.328Z" fill="black"/>
<path d="M46.8966 217.328H39.1724V225.052H46.8966V217.328Z" fill="black"/>
<path d="M54.6207 217.328H46.8966V225.052H54.6207V217.328Z" fill="black"/>
<path d="M70.069 217.328H62.3448V225.052H70.069V217.328Z" fill="black"/>
<path d="M100.966 217.328H93.2414V225.052H100.966V217.328Z" fill="black"/>
<path d="M116.414 217.328H108.69V225.052H116.414V217.328Z" fill="black"/>
<path d="M124.138 217.328H116.414V225.052H124.138V217.328Z" fill="black"/>
<path d="M131.862 217.328H124.138V225.052H131.862V217.328Z" fill="black"/>
<path d="M155.034 217.328H147.31V225.052H155.034V217.328Z" fill="black"/>
<path d="M162.759 217.328H155.034V225.052H162.759V217.328Z" fill="black"/>
<path d="M170.483 217.328H162.759V225.052H170.483V217.328Z" fill="black"/>
<path d="M178.207 217.328H170.483V225.052H178.207V217.328Z" fill="black"/>
<path d="M185.931 217.328H178.207V225.052H185.931V217.328Z" fill="black"/>
<path d="M209.103 217.328H201.379V225.052H209.103V217.328Z" fill="black"/>
<path d="M224.552 217.328H216.828V225.052H224.552V217.328Z" fill="black"/>
<path d="M23.7241 225.052H16V232.776H23.7241V225.052Z" fill="black"/>
<path d="M70.069 225.052H62.3448V232.776H70.069V225.052Z" fill="black"/>
<path d="M85.5172 225.052H77.7931V232.776H85.5172V225.052Z" fill="black"/>
<path d="M100.966 225.052H93.2414V232.776H100.966V225.052Z" fill="black"/>
<path d="M124.138 225.052H116.414V232.776H124.138V225.052Z" fill="black"/>
<path d="M131.862 225.052H124.138V232.776H131.862V225.052Z" fill="black"/>
<path d="M139.586 225.052H131.862V232.776H139.586V225.052Z" fill="black"/>
<path d="M147.31 225.052H139.586V232.776H147.31V225.052Z" fill="black"/>
<path d="M155.034 225.052H147.31V232.776H155.034V225.052Z" fill="black"/>
<path d="M185.931 225.052H178.207V232.776H185.931V225.052Z" fill="black"/>
<path d="M193.655 225.052H185.931V232.776H193.655V225.052Z" fill="black"/>
<path d="M209.103 225.052H201.379V232.776H209.103V225.052Z" fill="black"/>
<path d="M216.828 225.052H209.103V232.776H216.828V225.052Z" fill="black"/>
<path d="M232.276 225.052H224.552V232.776H232.276V225.052Z" fill="black"/>
<path d="M240 225.052H232.276V232.776H240V225.052Z" fill="black"/>
<path d="M23.7241 232.776H16V240.5H23.7241V232.776Z" fill="black"/>
<path d="M31.4483 232.776H23.7241V240.5H31.4483V232.776Z" fill="black"/>
<path d="M39.1724 232.776H31.4483V240.5H39.1724V232.776Z" fill="black"/>
<path d="M46.8966 232.776H39.1724V240.5H46.8966V232.776Z" fill="black"/>
<path d="M54.6207 232.776H46.8966V240.5H54.6207V232.776Z" fill="black"/>
<path d="M62.3448 232.776H54.6207V240.5H62.3448V232.776Z" fill="black"/>
<path d="M70.069 232.776H62.3448V240.5H70.069V232.776Z" fill="black"/>
<path d="M85.5172 232.776H77.7931V240.5H85.5172V232.776Z" fill="black"/>
<path d="M93.2414 232.776H85.5172V240.5H93.2414V232.776Z" fill="black"/>
<path d="M108.69 232.776H100.966V240.5H108.69V232.776Z" fill="black"/>
<path d="M124.138 232.776H116.414V240.5H124.138V232.776Z" fill="black"/>
<path d="M131.862 232.776H124.138V240.5H131.862V232.776Z" fill="black"/>
<path d="M185.931 232.776H178.207V240.5H185.931V232.776Z" fill="black"/>
<path d="M209.103 232.776H201.379V240.5H209.103V232.776Z" fill="black"/>
<path d="M224.552 232.776H216.828V240.5H224.552V232.776Z" fill="black"/>
</g>
<defs>
<clipPath id="clip0_1_2">
<rect width="256" height="256" fill="white" transform="translate(0 0.5)"/>
</clipPath>
</defs>
</svg>
